/* XPM */
static const char *ceiling_64x64[] = {
/* columns rows colors chars-per-pixel */
"64 64 249 2 ",
"   c #3E251D",
".  c #4D2A1C",
"X  c #46261A",
"o  c #542D1C",
"O  c #5B2F1B",
"+  c #5C321E",
"@  c #56301F",
"#  c #63341D",
"$  c #6C391E",
"%  c #69351C",
"&  c #733D1E",
"*  c #602F19",
"=  c #553323",
"-  c #5B3522",
";  c #5C3A29",
":  c #4D3125",
">  c #613621",
",  c #643A24",
"<  c #6B3D23",
"1  c #643E29",
"2  c #723E21",
"3  c #7A411F",
"4  c #6D4126",
"5  c #6B432B",
"6  c #65412C",
"7  c #744225",
"8  c #7A4525",
"9  c #73462A",
"0  c #75492C",
"q  c #7B4B2B",
"w  c #7C4827",
"e  c #694935",
"r  c #744D32",
"t  c #784E32",
"y  c #7C5334",
"u  c #78553B",
"i  c #725137",
"p  c #5B4030",
"a  c #3D5764",
"s  c #3A505C",
"d  c #454E54",
"f  c #49545A",
"g  c #575958",
"h  c #534B47",
"j  c #695546",
"k  c #785C46",
"l  c #675D53",
"z  c #705F50",
"x  c #7D634C",
"c  c #67635B",
"v  c #776757",
"b  c #485B64",
"n  c #535E63",
"m  c #4A626C",
"M  c #596568",
"N  c #586C72",
"B  c #58737B",
"V  c #456A77",
"C  c #666A67",
"Z  c #716C61",
"A  c #787369",
"S  c #697777",
"D  c #757B76",
"F  c #6A716F",
"G  c #5E605C",
"H  c #824E2A",
"J  c #844B26",
"K  c #85522D",
"L  c #8B552D",
"P  c #8D552A",
"I  c #955A2C",
"U  c #835432",
"Y  c #8C5B33",
"T  c #835A3B",
"R  c #895A36",
"E  c #925D33",
"W  c #945E35",
"Q  c #8C613C",
"!  c #956136",
"~  c #9C6434",
"^  c #93633B",
"/  c #9A663A",
"(  c #9C6A3B",
")  c #99683A",
"_  c #9E612D",
"`  c #A5652E",
"'  c #A56A34",
"]  c #A26D3C",
"[  c #A66A35",
"{  c #AB743D",
"}  c #A8723C",
"|  c #B57839",
" . c #B16F2F",
".. c #825E42",
"X. c #8C6342",
"o. c #886749",
"O. c #946944",
"+. c #9B6D43",
"@. c #936A47",
"#. c #9C734B",
"$. c #9A7149",
"%. c #866C52",
"&. c #8C7359",
"*. c #987857",
"=. c #906E52",
"-. c #A16F41",
";. c #A47343",
":. c #A97542",
">. c #AC7A45",
",. c #A2764A",
"<. c #A57A4C",
"1. c #AB7D4B",
"2. c #A67846",
"3. c #B37D43",
"4. c #B07E48",
"5. c #A47D55",
"6. c #887A66",
"7. c #917E65",
"8. c #C17E35",
"9. c #7A827C",
"0. c #BC803D",
"q. c #C4853D",
"w. c #AD814D",
"e. c #B4834B",
"r. c #BC8A4C",
"t. c #B98447",
"y. c #AC8353",
"u. c #A8845B",
"i. c #B28652",
"p. c #BA8C53",
"a. c #B48D5B",
"s. c #B78B56",
"d. c #BB9259",
"f. c #998468",
"g. c #888475",
"h. c #988F79",
"j. c #A88B68",
"k. c #AC926D",
"l. c #B89566",
"z. c #AA9677",
"x. c #B49B76",
"c. c #AE8D66",
"v. c #BBA37B",
"b. c #9C805F",
"n. c #C38B47",
"m. c #C8924A",
"M. c #C49454",
"N. c #CA9C5B",
"B. c #C69858",
"V. c #CC9751",
"C. c #D5A55A",
"Z. c #CEA25D",
"A. c #C29B63",
"S. c #C49D67",
"D. c #CAA469",
"F. c #D4AB65",
"G. c #D4AB68",
"H. c #DAB36C",
"J. c #C7A875",
"K. c #DCBC7B",
"L. c #D8B675",
"P. c #CEB077",
"I. c #E2BC6D",
"U. c #E1BD73",
"Y. c #E3C37C",
"T. c #E7C679",
"R. c #DFC078",
"E. c #587C85",
"W. c #4A7785",
"Q. c #677D81",
"!. c #5B828B",
"~. c #578996",
"^. c #6A8487",
"/. c #788988",
"(. c #68929A",
"). c #789495",
"_. c #698C92",
"`. c #5B98A5",
"'. c #6F9CA3",
"]. c #74AAB2",
"[. c #59A3B1",
"{. c #73BBC4",
"}. c #7AC9D1",
"|. c #868C84",
" X c #86918A",
".X c #999988",
"XX c #889A96",
"oX c #959D93",
"OX c #A49D84",
"+X c #9BA398",
"@X c #8DA09A",
"#X c #BBAA88",
"$X c #A7AA98",
"%X c #B8B29B",
"&X c #B1A991",
"*X c #88A6A6",
"=X c #98ACA6",
"-X c #94B8B7",
";X c #B8B9A6",
":X c #A9B7AC",
">X c #C4AE87",
",X c #C9B288",
"<X c #D7BB85",
"1X c #C7B897",
"2X c #D1BF97",
"3X c #C6BDA2",
"4X c #E0BF80",
"5X c #B7C5B9",
"6X c #B5C0B2",
"7X c #DDC287",
"8X c #D9C598",
"9X c #CDC198",
"0X c #E3C683",
"qX c #E5CC8B",
"wX c #E7CB85",
"eX c #EBD38D",
"rX c #ECD28A",
"tX c #E3CD93",
"yX c #E3CE9A",
"uX c #EAD494",
"iX c #EAD699",
"pX c #F1DC97",
"aX c #F3E19F",
"sX c #C9C5AA",
"dX c #D7CAA7",
"fX c #C8C9B5",
"gX c #D9D4B7",
"hX c #D5CFB0",
"jX c #ECDCA4",
"kX c #E8DAA8",
"lX c #E4DAB8",
"zX c #F0DFA1",
"xX c #F4E5A8",
"cX c #F6EBB7",
"vX c #F3E8B5",
"bX c #8AC6CB",
"nX c #96D0D3",
"mX c #B2D2CD",
"MX c #AEE2E2",
"NX c #C9D5C8",
"BX c #D7DAC6",
"VX c #C7DCD1",
"CX c #D6E1D3",
"ZX c #CAE5DD",
"AX c #E8EAD5",
"SX c #F3EFCF",
"DX c #CCEAE5",
"FX c #F1F5E7",
"GX c #E1DFC6",
/* pixels */
"9 8 < K Y y 0 t u u 6 X   X . . @ + < 7 7 7 L ! Y 8 + @ - < 4 w w 8 4 , - @ , R :.( K $ < , # # o . .   X , r y 0 < < 7 0 # $ & ",
". 0 7 I ] ,.*.T T O.r - = ; - . > # o # q 8 q ^ ;.:.! q 4 4 w K H H w 7 7 U i.p.:.L 0 q < # , 8 = = , = , 9 T U 9 i R ( L < 7 * ",
"@ < L :.>.*.f.&.T O.X.R Y 4 = = , 7 > o , U 7 w Y 2.p.d.w.^ Y E I I E -.s.D.d.) w 4 Y 9 > , 8 0 - - - K ~ U ^ K i v k +.~ R 7 & ",
"9 R ( w.s.*.%.o.r Q ,.#.( , - @ 4 / y - w Y w & H Y ( r.H.K.<X<XL.K.K.H.D.>.E H 3 8 E q , y O.y o > + / >.<./ 0 k x %.y.r.;.^ H ",
"i Q ;.;.#.c.*.&.=.U <.y.O.^ w o q s.O.= 5 y ,.( J L / e.F.L.qXcXcXxX0XH.t.~ L P ~ } K 9 , Q l.X.. 7 / ] 1.s.R #.*.&.a.y.#.,.( y ",
"i u o.u %.f.f.f.j.7.O.i.1.U # # 2.D.Q - r y y S.e.' 3.s.A.J.<XvXcXjX8X<XD.t.[ e.N.R U q > r J.u.< % H { e.( 5.j.f.f.*.=.k o.U 4 ",
"u T x %.%.7.j.x.#X;X*.^ ] w + q N.1.7 < y X.H c.8Xi.u.c.x.>X3XfXgXsX,XOXz.A.d.<Xl.0 ! R < 7 ,.D.Q O 2 ~ E O.$X$X#Xk.b.&.&.=.E Y ",
"u T ^ @.X.*.k.,XlXCXk.P w # # } r.E K w q U H c.kXj.f.z.>X2X6X5XfX$X X^.h.x.j.2XJ.q H U w I ( y.<.# # 8 H =.NXBX8Xl.j.$.X.^ R U ",
"e u O.+.W @.k.1XGXgXu.~ $ # w 3.^ U ] ~ L E ] 7X%XF D #X,X$X5XmXmX=XXX.Xz.D Z .X8X1.^ / :.e.R y / H % # L O.%XBXsXl.5.) ] / y 9 ",
": 6 y X.;.i.5.5.j.<.~ E # w r.t.H y X.@.1.d.J.&X^.S 9. XoX-XmXAXAX5X+X.X9.F M C OX,XD.d.y.$.y w ;.p.H * J I ^ *.=.+.y.,.( R 9 > ",
"X @ q K E <.1.Y L L L ] ^ d.Z.t.+.*.v l 7.Z C F D h.^.(.*XmXDXFXFXmX'.^.^.S C M M Z Z G g g %.,.e.N.s.! ! L L L L ;.,.E H H , o ",
"o . , o U -.H 4 < , , ;.D.P.e.e.$.6.A 6.g.b M F F D *XXX=X5XCXAXBX-X'._.^.S S C M g f f f n A *.1.i.A.G.;.< # % $ 7 E P o , @ o ",
"= o . . 4 q < O # # U p.D.D.A.c.f.D S D h.M m B B B XX/. X@X:XfXsX=X).^.Q.B B E.S n b N m N D f.f.l.A.H.p.U # O o # w 7 O . = @ ",
"= = . o = . o o O Y M.B.:.l.7X,X.X).(.!./.g.F N N F C D ^./.$X>X,X&X|.^.g.6.F B S B B ~.~.(.)..X#XqXD.1.B.V.E O o o o o o . = + ",
"= = @ = o o + < Y :.r.3.i.z.2XdX5XbX].`.W.B F C C v =.c..Xg.h.d.M.j.h.h.v.u.6.C N E.!.`.].-X-X:XdXdXx.a.N.M.e.^ 7 , + o O O @ o ",
"u ; o o < U ] >.>.y U 5.&.g.oX6XCXZXnX].~.E.N C c c l %.l.u.c.e.n.a.a.A.y.v Z C C S _.].bXnXZXCXfX$X|.6.x.O.U #.2.( Y 0 + o - 4 ",
"o.e   , K ~ ] e.y.j j v Z D (.bXZXFXmXbX]._.D A 7.6.&.o.e.] e.N.G.D.G.C.#.&.f.7.A D ).bXMXDXFXDXnX].).D f.z e *.y.^ E U 5 . ; U ",
"y u ; 9 Y ~ ) s.k.g g f n B (.{.MXZXVXmX*XXXD f.l.z.k.y.[ | m.0XrXI.n.[ y.c.k.c.j.|.=XmXmXCXDXMX}.].`.E.M g f f.s.^ U U t ; y K ",
"( U t 9 E ( ) +.x.g.d f m W.(.[.}.nXmXhX9XOX7.B.Z.s.p.r. .| C.wXqXI.q.| t.M.3.V.p.7.OX2XdXVXnXnX}.{.].`.V f F v.( ^ R U r t L / ",
">.^ ^ q U O.T Q ,.1Xg a E. X@X`.[.{.bX;X<XP.c.r.n.n.| |  .m.I.I.U.T.C.8.| 0.n.| ] u.J.7XsXmXbXnXnXnXbX[.W.f $Xy.! y X.T 0 ! E t.",
"e.e.Y U q r 9 q O.,XC s M k.sX(.`.`.'.oXk.K.D.B.Z.I.q.| n.Y.qXeXpXY.0Xn.q.m.C.| M.P.K.x.$X6X{.nXDXDXnX`.V b #X] L 5 r 9 H I ] m.",
"D.D.y.L w q 7 K ,.2XC f C f.z.W.E.E.S 6.5.A.H.H.C.H.C.V.H.vXcXxXvXvXvXK.C.C.m.q.C.G.B.5.h.*X].bXZXMX].W.a b 1X1.R 9 w w H ( d.M.",
"D.w.Q $ 7 w w ;.A.#Xf b F A A b b N 6.*.e.t.D.B.n.C.I.T.eXeXvXpXpXvXxXpXeXwXC.m.N.Z.r.p.j..X).'.-X].~.m b n OXD.1.q w w 2 U ] B.",
"P.d.R 7 3 P e.G.x.Z f f g.C f f c =.u.p.n.` r.| C.K.uXjXpXpXcXvXcXSXxXxXcXzXY.F.n.n.' M.d.c.u.A E.(./.g.6.F c j.D.p.E w w K 1.L.",
"7XP.2.K q ;.>.d.v f d g g.M d d o.%.%.,.] [ n.N.H.rXzXjXvXxXvXaXaXcXvXcXxXzXeXI.C.q. .] 5.*.%.o.M 6.h.k.6.C g c u.:.~ L w ) A.qX",
"D.L.B.:.d.a.>.l.v l &.f.6.b f f %.z *.i.;.`  .K.qXuXxXjXjXzXrXeXeXeXaXvXxXvXiXuX0X| ` } s.u.z %.g v h.v.c.*.Z C j.] ] e.,.p.P.P.",
"0 c.<XD.A.1.] l.f.5.J.D M b f f &.*.k +.{ ` n.T.uXiXuXqXqXT.T.rXrXT.T.rXeXpXkXjXqXN. .| >.T #.&.f g M g.z.a.=.v y.] ;.p.B.K.a.q ",
"= , u.8XP.d.1.<.D.P.dX|.F M g g v i.^ W | t.H.Y.qXuXpXwXY.wXwXpXpXqXqXrXwXzXjXiXeX0Xr.n.' ! i.v f b m B D f.<.1.;.1.i.D.8Xa.7 + ",
"- = 5 c.yXP.l.*.v.#X|.D )./.F c z #.~ | m.F.iXjXjXzXrXU.Y.eXxXcXcXxXuXtXY.rXxXxXjXjXD.n.| ' <.v C N B (._.9.v.l.5.a.D.tXJ.8 > # ",
", , ; q ,X<XP.,X,XOX/.XX=XXX9.7.=.s.B.V.C.G.uXyXjXpXT.H.Y.zXcXSXFXcXaX0XU.T.uXjXyXyXF.C.N.B.a.=.f.^.~.'.'.+X1XJ.J.D.P.<XY , , # ",
"5 , , , #.tXtXxX8X%X$X;X6X%Xv.S.t.3.I.U.G.H.eXqXxX0XU.0XwXxXSXFXFXSXxXqXwXY.wXxXqX0XH.G.I.H.e.e.A.v.=X:XmX6X;X8XjXqXyXi.7 4 < & ",
"R < , , U 7XeXcXvXgX6X5X:X@Xh.c.>.1.N.Z.F.F.uXtXkXjXT.H.0XpXcXSXSXcXxX7XK.I.iXjXyXtXG.F.F.N.1.,.j..X*XmXVXNXsXkXcXxXtXY < 5 7 P ",
"y.8 < , 7 J.eXpXlXAXNX-X*X_.Q.A v #.W 3.n.G.kXlXkXxXwXH.K.qXaXvXvXxXuX7XG.T.jXkXkXkXL.V.t.] *.c S !.`.bXVXhX3X2XuXeXP.w , 1 7 ' ",
"2.7 # , < l.L.<X2XlXFXNX'._.B M l #.W L ` 3.8XiX0XqXuXU.L.0XY.uXeX0X0XY.H.qXqXqXiXuXN.| I W ,.g M W.~.'.=XXXoX%X8XL.D.0 , 1 < I ",
"U < > , 7 l.A.c.k.1XSXCX*X(.B M v #.u W I I B.uX0XqX0XR.L.L.L.Y.0XU.K.L.K.Y.qXqXuXD.` ` ^ k $.v b V W.!.^.=XgXgXdXD.A.t - ; < H ",
"t > - , q d.y.*.5.x.hXAX-X'.!.m v x %.y.] I ` L.wXqXpXuXuXY.H.H.U.H.Y.yXyXjXtX8XY.[ I ] u.&.z k d a W.!.).BXGX8XJ.p.l.Q ; ; , w ",
"- = 1 4 ( w.) @.*.j.>XGX=X'._.m z ..v =.:.[ | n.G.qXuXtXuXqXuXY.Y.uXtXiXiXjXeXL.n. .' ;.*.%.%.%.b V ~.'.XXsX,XD.l.2.s.<.4 ; = , ",
"o , r K e.+.W $.*.f.#X;X).'.^.N C %.#.<.B.>.t.[ n.G.7XiX0X0XjXuXpXjXwXwXxXyXH.m.' t.{ N.i.5.%.c m !.-XbX:X1Xk.c.d.2.2.i.U 1 ; ; ",
"6 r q ] w.^ E ;.*.z.1X:X:X:XXX XD g l k ] :.M.r.| 0.G.qXtXqXjX7X0XkXqXuXqXG.t.| t.M.>.>.T z M C F _.nXVXsX1Xj.1.{ ~ ~ ,.+.0 e 6 ",
"y y ! s.$.+.l.,XJ.#X2XdXlXSXAX+XF M c x X.,.p.N.n.q.| 3.D.yXiXuXuXkXjXG.|  .| | M.d.$.X.z C 9.OXS ).-X;X$Xz.k.J.S.i.] W ^ Q t i ",
"T E y.j.k.j.*.z.1X,Xx.z.#XdXSXNX/./.S A j.P.s.4.{ | ' I I M.H.G.H.L.F.` I ` | ] <.a.J.j.v M OX+X).=X:X6X%X#XP.D.+.U U ^ T *.X.T ",
"/ O.*.j.j.#Xk.t X.5.j.j.k.x.dXAX:X@X Xh.<XP.*.O.W / ] { `  .V.G.G.C. .` [ ] E L Y *.J.L.7.N |.%X;XGXlXhX1X>Xd.I H R =.*.=.k.$.Y ",
"y k o.f.j.#X1XT R ^ @.*.5.u.>XlX;X$X+X#Xx.6.j k +.@.<.>.'  .t.L.K.3.`  .4.u.@./ T j 6.k.z.9./.fXgX8X<X2X>Xv.:.L Y #.z.f.*.j.@.U ",
"6 e j %.7.z.,X1.:.O.@.X.#.l.,XgX;X;X%X.X|.D l h k x %.o.p.r.i.N.N.e.:.3.@.x %.T h g C A g..X;XlX8XD.D.S.c.u.i.:.] O.x.j.f.j.o.q ",
"; e i t y =.v.a.( +.Q / ^ 5.J.8XdXdX%X+XsXfXD d h h j j ] / #.+.] O.^ ;.k j h h d g C D .X;XgXdX<XH.d.>.D.$.y.>.;.,.5.*.j.j.%.T ",
"; e , < w U ,.1.e.] J P Y R d.<XkX8X;XsX%X;X/.b d h j X.o.z k ;.;.x v %.o.z h f f f C +XBXFXSXkXP.M.( ) 3.E ( 3.3.} ~ ^ X.%.%.k ",
"= - > - > # < q ;.r.t.` I } N.K.P.9XgXhXOXS M N b d g g d d Z u.u.Z f f l c f b n M +XAXSX8XJ.l.F.n.} :.` } r.t.~ H w 0 , 1 i e ",
"= , , @ - . # # $ ! M.m.` p.H.d.a.,XgXGX%XC M N N b a a b b B g.h.B N b a n C F F 9.fXlX>Xi.d.>.>.F.e.' | V.} 8 + - O > - 1 4 1 ",
"- - = @ y ^ J $ $ $ U r.Z.N.e.~ 2.x.1XlXfX|.D /./.S B V B B !.*X=X+XQ.N N A g. X/.XXsX2Xj.y.>.~ L ;.M.N.V.! # # # 0 L H , , , , ",
"0 4 , 9 ;.r.{ ~ J L 0 2.G.B.P E ^ *.x.1XhXfXfXBXfXoX/._.E.!.'.NXBX=XoX X^.9.D +X;X=X3X>Xj.@.U < 2 & 4.F.r.7 2 w K ^ p.{ q 4 0 0 ",
"y 1 K ] r.M.M.:.-.2./ E E e.' L O.*.j.x.#X1X1XdXlXfX X_._.).*XNXCX-XXX)./..X.X$X;X6X%Xz.f.=.X.5 $ w ;.Y E Y ( ~ ! p.p.{ E K 0 w ",
"e y $.p.p.e.d.,XfX&XO.E % 8 ] K U ^ o.*.j.j.k.#X#XsX$X X X+X:X5X5X:X*X).$X;XsX3X1X1Xx.j.*.=.X.L $ E 0 + K L c.J.l.e.e.w.<.^ r 4 ",
"X.$.a.d.<.s.P.kXSXAXj.~ J # < K 7 8 0 R ,.i.J.,X#X>Xx.z.$X%X;X6XfX;X;X;XBXhX1X1X2X,Xv.x.#.U H J w 2 # 7 E #.hXvXqXD.a.y.i.<.+.X.",
"O.$.2.s.s.l.L.tXkXdXu.[ ' # O 7 w 7 J J L L ;.8X8X2X,X#X%X%XsXsXsX3X3XgXhX1X#X8X<Xe.;.<.( ! J J w # , E ~ <.8XuX0XP.l.a.i.2.+.$.",
"O.Q 1.<.y.A.G.D.P.A.e.V.[ L $ 8 ;.Y L J P / ~ A.kX<X8X>X#X2XgXhXdX9X3X3X1X1X>XK.3.{ >.E P I Y ( H < 0 ^ i.:.l.D.P.D.l.y.5.a.O.,.",
"@.! ~ } r.B.d.p.r.e.n.{ | 3.~ { D.J.y.} ;.-.~ p.L.B.D.J.,X<XyXvXlX8X2X2X2X,XD.G.] { ;.;.} e.D.D.{ E ^ ) :.:.;.y.a.s.p.r.>.2.^ y.",
"^ R ( ( >.:.<.w.:.| { ,.] ! K w U c.J.i.! ] { V.n.' l.P.K.K.tXSXSXkX7XY.<XD.>.S.e.E Y ] e.G.s.E H K ! ( +.O.+.O.=.*.<.r.>.{ ! ;.",
"0 # 0 L I ] ,.>.:.1.+.~ w + o O # 9 ,.e.;.p.m.t.~ I :.L.K.wXpXcXSXxXeXT.U.r.~ } M.3.} 4.3.:.7 # + - < U Q X.$.@.@.%.Q ] ! K $ 0 ",
"0 L 9 q ^ ,./ ^ $.O.U # o o o o O , R K R 2.) K P ' _ >.M.H.T.aXxXrXU.Z.3.' ' I L 1.w.( E U > < 4 = = - 5 u o.o...o.X.Y 0 < K w ",
"$ $ o r T K K u T 5 o . ; 4 , > , , q H U w ( :.{ p.t.r.N.L.<X<X<X7XL.M.r.t.r.;.K w 7 H w H , 0 5 < , 1 - ; e i u u u Q R o 4 0 ",
"+ - : , 7 0 9 4 , . o = ; 0 0 , < 4 H J E E I } A.P.B.G.D.:.I L J R ,.J.G.p.P.A.] K K U w q 5 r 1 8 7 1 ; = - 1 e i r e 5 ; 6 8 ",
": p i < 9 5 , - . ; e j T K 0 , , 7 7 Y +.1.i.;.>.P.D.>.J & < 7 < , , 0 ,.D.7Xp.w.l.u.O.U w 0 , - < w y j e 6 = - 6 e e e j j = ",
"; ; < , < - o . ; k 6.&.O.T y < < 7 U *.*.y.P.J.s.D.^ $ $ < < 7 2 $ , , , O.D.s.J.yX>Xj.*.T 7 1 , 4 q ^ &.6.k e @ = - 6 1 1 e ; ",
"- # + - - = . . u ..h.j.*.@.r 2 q r o.5 y R a.J.B.O.% # < , 7 J 3 & > 1 , , ^ s.D.D.,...i x r 9 9 6 T @.j.z.&.x = . o @ - o @ ; "
};
