/* XPM */
static char *east_64x64[] = {
/* columns rows colors chars-per-pixel */
"64 64 218 2 ",
"   c #0D0D0B",
".  c #090807",
"X  c #151513",
"o  c #191916",
"O  c #1C1D1A",
"+  c #171815",
"@  c #10100D",
"#  c #201F1B",
"$  c #1F201E",
"%  c #21211E",
"&  c #1A373B",
"*  c #152C30",
"=  c #242522",
"-  c #2A2925",
";  c #2C2D2A",
":  c #272826",
">  c #312F29",
",  c #2E302D",
"<  c #32322D",
"1  c #39362E",
"2  c #273435",
"3  c #343532",
"4  c #393731",
"5  c #363835",
"6  c #3B3A35",
"7  c #3D3E39",
"8  c #343A3A",
"9  c #413E37",
"0  c #3E413D",
"q  c #43433D",
"w  c #49463E",
"e  c #4C483F",
"r  c #133C43",
"t  c #193C42",
"y  c #0A3942",
"u  c #094C57",
"i  c #124C55",
"p  c #175259",
"a  c #0E424A",
"s  c #344546",
"d  c #3D4443",
"f  c #384849",
"g  c #385558",
"h  c #2B4D52",
"j  c #155A65",
"k  c #0C5864",
"l  c #395C61",
"z  c #176D7B",
"x  c #1C666F",
"c  c #28656D",
"v  c #266A73",
"b  c #26727D",
"n  c #3A6B6F",
"m  c #454641",
"M  c #464844",
"N  c #4A4B45",
"B  c #4C4E49",
"V  c #464A46",
"C  c #514F47",
"Z  c #4E514B",
"A  c #46504E",
"S  c #53534D",
"D  c #59574E",
"F  c #5A584F",
"G  c #4B5A59",
"H  c #545651",
"J  c #565953",
"K  c #5B5C54",
"L  c #5C5E59",
"P  c #565D5B",
"I  c #605F55",
"U  c #5E615B",
"Y  c #58605B",
"T  c #63645C",
"R  c #69665B",
"E  c #6A695E",
"W  c #666358",
"Q  c #6F6556",
"!  c #496868",
"~  c #586A67",
"^  c #527375",
"/  c #646661",
"(  c #666963",
")  c #6B6C63",
"_  c #6B6F69",
"`  c #706E63",
"'  c #6F7067",
"]  c #6E716A",
"[  c #737166",
"{  c #73746B",
"}  c #78766B",
"|  c #76786E",
" . c #7A796E",
".. c #7C7667",
"X. c #767A72",
"o. c #7C7D73",
"O. c #757B75",
"+. c #637F7E",
"@. c #817F73",
"#. c #817868",
"$. c #7D8076",
"%. c #7D827A",
"&. c #828276",
"*. c #83857A",
"=. c #88877B",
"-. c #85887F",
";. c #8B8A7D",
":. c #8A8576",
">. c #958E7F",
",. c #0B798B",
"<. c #177686",
"1. c #0D7689",
"2. c #2A7682",
"3. c #377D86",
"4. c #0C8799",
"5. c #1A8394",
"6. c #38828A",
"7. c #288591",
"8. c #358C96",
"9. c #37949E",
"0. c #2B8A94",
"q. c #0C94A6",
"w. c #1397A8",
"e. c #3B9BA4",
"r. c #18A8B9",
"t. c #36A1AB",
"y. c #29A8B6",
"u. c #33A8B3",
"i. c #448389",
"p. c #478C94",
"a. c #519095",
"s. c #689598",
"d. c #789C9D",
"f. c #6F8F8E",
"g. c #509FA4",
"h. c #639EA3",
"j. c #4AA3A9",
"k. c #47ABB3",
"l. c #48B2BA",
"z. c #5BAAAE",
"x. c #73ABAD",
"c. c #1BB6C5",
"v. c #37BAC6",
"b. c #29B7C5",
"n. c #44BAC3",
"m. c #48BBC4",
"M. c #67BEC3",
"N. c #2FC9D6",
"B. c #46D4DE",
"V. c #59D0D6",
"C. c #73C8CC",
"Z. c #858A81",
"A. c #8B8D83",
"S. c #878B84",
"D. c #918E81",
"F. c #8E9186",
"G. c #8C938B",
"H. c #85918B",
"J. c #929285",
"K. c #93958B",
"L. c #95988E",
"P. c #9B9A8D",
"I. c #989688",
"U. c #949A92",
"Y. c #9B9D93",
"T. c #9A9E98",
"R. c #839491",
"E. c #A09E91",
"W. c #9DA095",
"Q. c #9EA39A",
"!. c #A3A295",
"~. c #A3A59B",
"^. c #A6A99E",
"/. c #AAAA9D",
"(. c #A8A798",
"). c #B0AE9F",
"_. c #92B9B9",
"`. c #8BA9A8",
"'. c #A6AAA1",
"]. c #ABADA2",
"[. c #B0AFA1",
"{. c #AEB1A5",
"}. c #ABB2AB",
"|. c #B2B2A5",
" X c #B4B5AA",
".X c #B6B9AD",
"XX c #BABAAD",
"oX c #B8B7A9",
"OX c #A4BAB7",
"+X c #BCBEB1",
"@X c #B4BBB5",
"#X c #C0BFB0",
"$X c #BDC1B8",
"%X c #AEC2BE",
"&X c #C3C3B5",
"*X c #C4C5BA",
"=X c #C6C8BD",
"-X c #CBCBBD",
";X c #C8C6B7",
":X c #D0CEBE",
">X c #81BEC0",
",X c #8ACCCE",
"<X c #B3CAC7",
"1X c #A6E6E7",
"2X c #CCCEC2",
"3X c #C5CCC3",
"4X c #CCD2C9",
"5X c #D2D2C4",
"6X c #D4D5C9",
"7X c #DBDBCC",
"8X c #D6D8CB",
"9X c #DCDED2",
"0X c #D5DCD5",
"qX c #CFD2C6",
"wX c #E0DECE",
"eX c #DDE1D5",
"rX c #E1E2D4",
"tX c #E4E6DB",
/* pixels */
" X].XX2XrXrXeX7X7X7X+XK.I.o.!.*X&.O q  .).&XoX/.(.!.P.J.;.=.&. . .) E E !.{ 6.C.4XP.$.{ ) 7 ) K Y f.M [ T q K 4 < ; ; 3 G = O $ ",
"qX6X9XrXrX9X7X7X8XXXI.!.&.P.+X|.7 - R P.&X&X+X|./.!.E.I.J.;.=.@. .E ) E !.{ 3.M.4XE.&.{ ' B S { ~ x.~ D A.B K K < , , 3 , : O O ",
"2X5X6X5X5X-X*X&X|.*.~.;.A.|.&X) O B &.|.*X+XoX|./.!.W.P.J.;.:.&. .) T ` (.[ n l.4X/.=.{ [ K 6 -./ x.d.q J.{ M E q ; : = = : = O ",
"9X9X9X6X*X+X$X*XJ.J.L.$.W.*XP.- <  .!.XX+XoX/.~.!.P.J.*.=.:.o.{ ) T T ) (.[ ! l.<X~.o.{ ' T < ` _ ^ h.M [ !.N B K , - % % : 5 % ",
"9X9X9X8X2X2X=XY.X.Y.o.K.XXXXS O S &.+X5X;XXX|./.W.P.J.A.;.=.&. .[ T _ { /.[ n k.<XoX*.{ _ ) q C &.~ g.s.B P.*.3 B S ; : % : , O ",
"tXtXrXrXrX7X'.{ Q.o.A.].=X&.O 6 ) P.*X-X&XoX/.Y.P.J.;.A.=.&.o.} ) L X. ./.[ l k.<X&X-.} ) ) D 4 ` ) i.,XY ) |.H V [ 7 ; % O O % ",
"8X6X7X5X-X].) Y.Z.o.!.*X^.4 % K =.|.&X&XoX[.P.P.Y.L.A.;.*.&.&. .) ) { { /.[ l l._.2XZ.o.) T K < K [ ! M.f.q J.Z.m ( _ 1 : = O O ",
"5X8X6X&X/.*.F.L.] K.oX&XT X q  .P.=X-X&XoXoX|./.Y.P.L.A.*.*.&. .[ _ ) [ ^._ l l.x.5XZ.$._ ) T 4 m { S g ! 4 K P.B 0 ) N 4 - % X ",
" X|..X].J.L.P.] *.~.&XJ.= # W P.P.XX&XXX]./.~.W.U.F.Z.-.$.X.{ ' T D q L !.) g k.h.*X{ o.' / T q < ) K ! h.^ 5 ) } 4 7 K 6 : < = ",
"&X|./.!.].^.{ o.L.*X|.N X N P.|.&X5X-X*X&XXX/.K. ._ ] $.Z.*.o.{ { E N / ~.) g e.a.5XA.$._ E T D - K E ~ n h.d T /.J < B Z : ; : ",
"/.!.!.XX^.$.[ A.+X&X{ o ; [ /.XX5X6X2X-X&X~.*. .J.L.A.} ] o.o.{ { E ) [ ^.) g j.g.0XP.o._ T U K < q ) T g z.+.6 =.K.= $ N ; ; : ",
"P.P.XX.X-.) P.~.=XP.< X N K ;.&X5X2X&X!.{ X.W. X].Y.L.A.o.T ) { ) E _ [ ^.) g j.j.0X!.X.] T U K 9 < ) E G j._.8 S /.S - 4 0 - ; ",
"P.+X*XK.) A.G.*XXXK X < J { !.&X&X&X|. .A..X+X.X~.K.G.Z.%.{ / _ ` _ ) [ ^.) g j.t.4X].{ { T U L w = K o.K v >XH ; o.A.: % N - : ",
"'.=XY.{ *.K.}.+X*.% o B T A.&X5X-X&X&XoXL.Y. X XQ.K.G.-.$.{ ] ) ) I q _ ^./ f g.t.<X+X[ X./ U L B - m A.q = 2 3 = m Y.B O : 6 ; ",
"G.Q.%.) Y.T.3X/.q   < K [ ].5X:X;X&XoX+X].K.F.~.K.F.Z.$.o.] ) ) T N N { ^./ s p.t.OX2X] X.) T T K < - X.m : ; 8 3 6 } -.O = m Z ",
"G.G./ K.f.@XoX` o o S ;.*.oX:X=X&X+XXXoX X XL.{ [ *.Z.o./ L ] ] U K K X.~.L s p.u.s.X.B / U J J Z < O J Z 4 7 7 8 3 m ;.m - 7 d ",
"G.] | *.'.&X;.<   ;  .E.=.Y.XXXXoX].!.P.Y.Y.A.X.o.o.X.) H V T L J T K X.~.L s i.u.! o.) ] ( U H S m - 6 ) q = O 3 5 - o.J.5 - = ",
"o.U *.%.*X#XK X O D ~.|.XX-X5X-X-X&X].].K.~.Y.%.Z.A.Z.o.( Z 4 S J S N { ~.T s 6.9.s.8X%.X.] T J S S - = T T $ : h ! : W +XL - $ ",
"B J.o. X=X-.= @ 7 A.+X-X7X7X6X*X-X=X+XXX|.{.~.%.*.A.*.X.) Z 7 H Z Z B X.P./ h 6.y.h.tXZ.] ] L H S B 4 O B @.3 2 n x.8 6 !.T.6 ; ",
"J.o.}.2X].q @ = S A.!.-X8X6X2X&X=X&X+X+X.X].Y.G.F.Z.o.] ( Z S L H J B X.W./ f 3.y.a.eXG./ / Z m m N q O 3 o.N 2 l C.~ : _ *XL , ",
"!.U.$X&X` O X 0 N T P.6X2X=X.X|.$X+X+X+X.X'.L.L.G.*.X.X.| L B H / U Z o.Y.U s b y.8.0XY.U ( N 0 7 7 q = = T [ ; h z.d., M ].T.3 ",
"Z.@X&XA.<   : M J } E.oXoX~.U. XoX|. X X].W.L.L.F.*.X.X.X.] Y V U { Z @.Y.U s v y.8.0X].U ] J M q 0 m ; O Z F.6 8 i.,XA 3 X.+XL ",
"}.2X.XS X X 0 N T =.'. X&X+X~.Q.].].'.'.Q.U.K.Y.Y.L.*.o.*.$.X.~ / ) N &.P.T s c u.7.4X+XL _ / H M q q 6 O 6 A.J 2 c C.f.2 M '.].",
"$X3XO.:   < q D X.|.6X6X5X2X=X].].].'.Q.T.G.U.W.Q.K.$.*.A.*.o.U U U M ;.J.U s c l.5.<X-XT _ ( J N 0 6 6 O : [ O.2 h M.,Xs ; { &X",
" XT.q @ + m S =.E.8X7X6X5X2X-X+X^.^.W.U.G.H.U.G.A.%.%.$.$.X.} L P H m ;.J.J s x n.5.OX6X/ ( ) U J B q q = O Z A.7 2 8.1X^ = m P.",
"|.U O   3 B [ Y.|.8X5X5X2X2XXX^.^.W.G.H.H.S.%.X.{ ) ( / U L U Z H B m D.K.L f x m.5._.9XX.T _ U J Z B N ; + 5 S.K : h h.^ = ; W ",
"-.3   + N X.F.~.*X5X2X2X=X&X.X!.^.T.H.f.O.O.] ] ] ) ( T J S S M N q M J.L.L s j m.w.x.tXA.U { / L S Z Z 5 + - { J O O : ; O $ ; ",
"S o   - N :. .J.-X-X-X*X&X&X&X^.].'.W.G.A.A.A.Z.*.$.{ ) ) ) T m N N B P.L.J s j l.w.h.tXK.J { ( U J H H m O O J m % = O = : ; ; ",
"= @ o m R &.J.[.5X:X=X&XL.|.+X X X{.~.T.L.Y.L.G.A.*.{ ) [ { ) S S S N P.Y.U f p l.r.a.3XZ.N / U L Z H Z M : O B D 3 < ; 3 5 6 q ",
"    ; K /.L.A.Y./././.~.] { Y.Q.Y.A.%.o.o.Z.$.X._ / T L L J N K K B w P.Y.L d i k.y.6.] q % 0 m m 5 7 0 6 O + 8 B < , , 6 0 d m ",
". + M ;.|.!./.XXP./.|.|.{.'.^.^.~.Y.A.X.X.A.A.$.) T U J J Z S ) D q N Y.L.Z d i j.y.c A B 4 J Z B q q M m 5 = 3 7 6 7 V g n l : ",
". = D Y.].*X5X-XoX+X+X.X.X X].'.^.~.~.U.G.K.F.%.{ ) U U J J J / m 5 q Y.L.L f a 8.7.c O.~.J ( U L H S S Z N 3 O 4 q 3 0 s.,Xx.2 ",
"X 6 ;.!.&X6X5X$X.XXX X{.].].~.~.Q.Y.S.o.o.%.%.%.X.{ / U J S B S 6 4 q Y.J.L f i 8.w.2.<X*XL T _ L H S S Z N 5 X , L M N ~ n p.! ",
"4 X.-X!.-X5X-X+X+XoX{.].'.~.W.Y.W.L.o._ ] { { $.$.{ ) T J S D 7 4 J N P.K.L f p 9.y.2.<X5X) J _ U J H S Z N q O = L S M J s h i.",
"D ).oX|.5X2X|.|.*X+X X{.].'.~.W.Y.U.%.Z.*.] _ ) ) ) ) T T ) W B q _ N E.J.J d i 9.b.<.%X7XX.J ) U L H Z Z B N < % N K M B B 2 g ",
"=.;XE.&X2X-X|.+X*X&X X{.].^.Q.Y.U.-._ *.G.$.X.{ X.} ) ] X.[ K D J ] N !.A.J d i 9.v.<.OX9XA.K ) U U J Z B M M q ; 6 K B N L ; 2 ",
"#X|.!.2X2X&X+X*X*X+X X].~.Y.G.U.A.L U | F.-.A.A.*.{ { o.$./ s H _ { w !.A.J d i 8.v.<._.tXY.J / / U J S B q 0 m ; ; S N m J f p ",
"#XY. X2X-X+X&X*X&X+X.X].W.G.*.*.B M B L *.Z.L.Z.X.X.o.X.] G 7.^ *.o.9 E.;.H d a 7.v.,.`.rX/.K / ( U J S B m m m 3 = m Z m V P p ",
"/.U.XX-X*X+X$X+X+XXX X'.^.Y.{ e K | ( L { A.-.{ o.X.| U / Y g U { { 1 !.=.Z d r b v.,.d.9X|.T U ( U J B M 0 6 0 6 = 3 S 0 d Y h ",
"*.F.!.].Y.L.].].].W.K.A.Y.I S o.'.Y.G.$.T ) O.{ ] / L B / U F D T W 7 /.;.Z d r b v.,.s.9X+X) J ( L S B 6 ; : 3 q = = Z m 7 Z G ",
"-.|.*X+X|.|.&X&X+X|.L.) S ) Y..X.XT.U.G.X.L L ] { ] / L T U K S T K 7 ].A.J V r v n.4.a.8X-X[ S / S B N m 4 ; 5 M - = m N 7 q T ",
"~.&X&X&X&X&X&XXX.XY.D F Z.|.$XXX{.G.G.G.G.] Z ( o.] / U U K K B S q 4 |.A.J M r j n.4.i.4X2X .J / J B B m 0 7 7 0 < $ 4 N 6 6 S ",
"XXoXoX|.E.oX+X|.X.N E Y..X+X+XoX~.S.G.G.G.A.T J ] X.) U J K N 4 7 1 q |.*.J V r j n.q.3.3X5XX.S ) U J S N q 7 7 0 6 $ = N 6 4 7 ",
"XXoX|.!.!.|.P.K q { ~.+X+XXX.X XP.Z.-.$.o.%.*.L U ) ) ) T Z M m 1 < q |. .N m & j n.w.2.%XwX*.7 ) T K S B m q m m 9 = O 7 q 6 6 ",
"oX{.J.J.|.K.m N &.oX$X{.{.oX|.^.-.{ / T U _ *.' D m B L K g ( D > - 9 ~.{ N m & j n.w.b }.&XK + L T M B N m m N M 4 O X ; q 4 4 ",
"Y.A.T J U B 5 _ } P.~.P.W.~.Y.o.S K J J J U T D W N m M K G { D > 6 S |.{ 7 d r j n.r.z R.&XJ.w B T Z B B N N M M 6 - O O 4 < < ",
"].G.N M M M q K.Y.{.|.|.].!.P.X.T T T ) _ { _ T [ K J J ) J  .K N S N oXo.S M r j n.r.<.`.tXoXT H ) J S B N N B N q 1 % O < 1 < ",
"^._ Z ) ) W ` XX+XoX|.].^.!.K.o./ ) ' { { X.&.o.o.[ T E _ J &.D T B N #X&.J N r j l.r.z `.rX&XT J / q q 7 7 7 7 6 < 1 O O = < < ",
"K.S T [ ` W >.&XoX|.].~.W.I.;.[ / T ) { }  .&.:.&. .) T L K =.S +.B S &X@.D N t j l.y.z d.9X-X) 4 ) S N N m m q 4 = o O O # = - ",
"X.B R E Q Q ).XXoX|.].^.!.J.@.[ [ ) ' { {  .o.&.o.{ [ T m S &.q ^ V D &X@.D N t j l.b.1.s.6X-X{ w ) I C N m N N % .   % q = % % ",
"S L } [ W #.oXoX|.]././.!.J.o.o.o.o.o.&.&.o.} { [ _ E D 6 7 [ 1 T N D &Xo.S N t k k.b.,.s.6X5Xo.S E W B N N N N -   % w &.w = % ",
"M ) [ R W I.|.|.|./.!.!.P.J.:.A.;.=.=.;.;.&.{ { ) T T W B 4 W 4 } C K ;Xo.S N t k k.N.4.a.qX8X;.D W ) N N N N N 6 o < w @.R = = ",
"L [ ) R R ].]././.!.!.P.I.J.:.F.J.J.D.;.;.&. .} W K ) T S 7 ) 6 { q K =Xo.D m t k t.N.4.p.3XwXI.K K { M q m m N e O ; q { @.< % ",
"T E W I =.|./.!.!.!.P.I.;.&.&.J.K.J.J.:.o. .{ ` K T K D K B [ 6 I 4 T -Xo.J m t u e.N.4.3.$X7X(.K B { S m m q m N = - 7 W >.e % ",
") T T W ~.].!.P.P.I.D.=.o.} *.;.*.*.:. .` [ [ ) K F F F S D [ 4 W 4 T -X .S m & u 9.N.q.2.OX7XXXT N } K N q q 7 q < % 4 B D.R = ",
"' ) W ..~.!.P.J.;.=.o.o. .[ A.=. .[ ) E W T [ ) T W D S N K { 4 T 7 E -X} B m & u 8.B.q.b `.7X&XE N { T m q 7 4 7 7 O ; 9 @.#.> ",
"X.{ R =.P.K.A.&. .{ }  .&.@.-.:.} E K S D [ { E T U S D M K ) 7 E q ) -X{ Z m & u 8.B.q.z `.8X:X[ M ) R m q 7 4 6 7 O - 6 T :.e ",
"o. .R &.J.A.&. .{ [ [ [ 7 7 D { [ ) R I E _ / K C S D [ M K T 7 ` w [ -X{ B m & u 7.B.w.z d.6X7X*.B T ` M q 6 < < 7 : $ 3 Z :.Q ",
"$.&.[ { ;.;. .{ [ [ ` R 6 q K T E _ ) W I K K S C D o.K = B K q [ q [ -X{ B q & a 2.B.w.z d.2X8XA.H J  .N q q 6 4 7 < O ; 0  ...",
"*.o.$.o.*.*.o. .[ [ ` [ } &._ T T E E W K D N N K o.D = - [ D q ` 9 [ 2X} B q 2 y b V.r.1.s.3X7XP.J B } S q 7 7 7 6 6 o : 3 K R ",
"X.} } o.X.&.*.&. .[ ) ) ` [ T W T T W W K K S K @.S % ; S o.B q ) 7 { 5X} S m 2 y x V.c.1.a.$XrX].J q [ K q q 7 6 4 6 O : , m ; ",
") [ { { [  .;.*.@.[ E W ) ) T K K K K I T W { o.N O ; B J  .q N ) 7  .5X[ S m 2 y j V.c.,.i.@X7XoXZ < ' K m q 7 6 6 7 = ; M ; q ",
"E _ ) E ) ) o.} [ W K C F S F D S D S F K ) @.N O ; N S L  .7 S ) 7  .2X{ S q 2 & p V.N.,.3.OX|.X.B - U S 7 3 4 < < ; - 4 -.; q ",
"4 4 4 4 < < 4 4 ; - > ; ; ; ; - = = % O O % ; O < N S J T } 4 K W 4  .-X[ D N 2 & i V.N.,.2.~ 3 / 4   = ; : : = % % % $ O 6 % - "
};
