/* XPM */
static const char *floor_64x64[] = {
/* columns rows colors chars-per-pixel */
"64 64 232 2 ",
"   c #2A2B27",
".  c #362D25",
"X  c #2E312E",
"o  c #3B342B",
"O  c #35322C",
"+  c #3D3B34",
"@  c #363B37",
"#  c #2E3431",
"$  c #44392D",
"%  c #443D34",
"&  c #4B3F32",
"*  c #3B413D",
"=  c #4B4136",
"-  c #44433B",
";  c #4C453B",
":  c #4A453B",
">  c #52463A",
",  c #544A3D",
"<  c #5A4D3E",
"1  c #524435",
"2  c #5E503F",
"3  c #6A543D",
"4  c #3B4644",
"5  c #434A45",
"6  c #4C4B43",
"7  c #464D48",
"8  c #544D42",
"9  c #5A4F41",
"0  c #4D524C",
"q  c #44514D",
"w  c #555146",
"e  c #5C5244",
"r  c #54544B",
"t  c #5B564A",
"y  c #5D594D",
"u  c #4B5651",
"i  c #4C5955",
"p  c #4B5C5A",
"a  c #465652",
"s  c #545B55",
"d  c #5B5C53",
"f  c #535E5A",
"g  c #545953",
"h  c #625545",
"j  c #615748",
"k  c #645A4C",
"l  c #6B5D4C",
"z  c #6A5946",
"x  c #735E47",
"c  c #645E51",
"v  c #685F50",
"b  c #55615D",
"n  c #5B635C",
"m  c #5E6056",
"M  c #4F605E",
"N  c #6D604F",
"B  c #7D6246",
"V  c #74624D",
"C  c #7C644B",
"Z  c #656154",
"A  c #6C6354",
"S  c #63655B",
"D  c #69665A",
"F  c #65685E",
"G  c #6C695C",
"H  c #726553",
"J  c #746957",
"K  c #7B6A55",
"L  c #746B5B",
"P  c #7A6E5B",
"I  c #736756",
"U  c #7D715E",
"Y  c #77705F",
"T  c #546563",
"R  c #5B6662",
"E  c #5D6A64",
"W  c #5D6D6A",
"Q  c #566A69",
"!  c #5C706E",
"~  c #5E7371",
"^  c #4C6363",
"/  c #636B64",
"(  c #6C6D63",
")  c #636E69",
"_  c #736E61",
"`  c #6E7166",
"'  c #64736D",
"]  c #6B736B",
"[  c #6F786F",
"{  c #757264",
"}  c #7C7463",
"|  c #73746A",
" . c #7B7768",
".. c #74796E",
"X. c #7C7A6C",
"o. c #7F7866",
"O. c #647672",
"+. c #697671",
"@. c #6C7A74",
"#. c #647C7B",
"$. c #6B7E7B",
"%. c #667975",
"&. c #737C74",
"*. c #7B7E72",
"=. c #737F79",
"-. c #84674A",
";. c #836D54",
":. c #82725C",
">. c #8A765C",
",. c #8C785E",
"<. c #8B7255",
"1. c #947A5C",
"2. c #947655",
"3. c #827662",
"4. c #847965",
"5. c #8B7B65",
"6. c #847C6B",
"7. c #8A7E6A",
"8. c #887760",
"9. c #927D62",
"0. c #947F64",
"q. c #817F71",
"w. c #6D807D",
"e. c #7D8176",
"r. c #74827C",
"t. c #7B847C",
"y. c #7B857B",
"u. c #9F815E",
"i. c #A1835F",
"p. c #8D826D",
"a. c #85806F",
"s. c #968166",
"d. c #9B8264",
"f. c #94836C",
"g. c #9A866B",
"h. c #9D896D",
"j. c #848273",
"k. c #8B8473",
"l. c #82867C",
"z. c #84897E",
"x. c #8B8A7C",
"c. c #8B8877",
"v. c #928672",
"b. c #948974",
"n. c #9B8C74",
"m. c #948D7B",
"M. c #998E79",
"N. c #9C927C",
"B. c #96917E",
"V. c #A38B6C",
"C. c #A68A67",
"Z. c #A18E72",
"A. c #A49175",
"S. c #A3947B",
"D. c #AA9679",
"F. c #AB997D",
"G. c #A99678",
"H. c #B29C7C",
"J. c #B49874",
"K. c #AE926E",
"L. c #B7A07E",
"P. c #5E7E80",
"I. c #6D8584",
"U. c #748682",
"Y. c #7B8A85",
"T. c #7C8D8A",
"R. c #778986",
"E. c #7C918E",
"W. c #77908E",
"Q. c #7C9594",
"!. c #6E9192",
"~. c #76A7AB",
"^. c #838C84",
"/. c #8A8E82",
"(. c #818F89",
"). c #8D9185",
"_. c #84928C",
"`. c #8C948B",
"'. c #869187",
"]. c #939384",
"[. c #9B9583",
"{. c #9D9B8B",
"}. c #979789",
"|. c #839692",
" X c #859995",
".X c #8C9A93",
"XX c #8B9E9A",
"oX c #859B98",
"OX c #969D93",
"+X c #918F81",
"@X c #A49A83",
"#X c #AB9D82",
"$X c #A49E8A",
"%X c #A59B86",
"&X c #B29F82",
"*X c #8AA19E",
"=X c #93A19B",
"-X c #9CA49B",
";X c #ABA28B",
":X c #A7A08C",
">X c #B3A184",
",X c #B3A58A",
"<X c #BBA787",
"1X c #A6A595",
"2X c #B5AA93",
"3X c #B9AD93",
"4X c #BFB196",
"5X c #8CA5A2",
"6X c #8AA9A8",
"7X c #95ADAB",
"8X c #97AAA6",
"9X c #9BB1AD",
"0X c #9CB4B2",
"qX c #9DBBBA",
"wX c #96B5B5",
"eX c #8FB0B0",
"rX c #A9B4AC",
"tX c #A3BDBA",
"yX c #A7BAB6",
"uX c #AFB6AA",
"iX c #C1AC8A",
"pX c #C7B697",
"aX c #C4B08F",
"sX c #C5BBA2",
"dX c #A5C0BF",
"fX c #B1C4BF",
"gX c #D7C8AA",
"hX c #A4C3C2",
"jX c #ABC9C7",
"kX c #BAD1CE",
"lX c #B1D3D2",
"zX c #B4CBC8",
/* pixels */
"d.i.i.u.2.2.<.B -.-.B -.B B 3 x z h z l l K H A v H :.3.o.| &.&.@.Y.E.Q.5XqXjXhXqXjXjXhXqXwXeX5XW.I.#.~ ~ ! Q W E E T i 4 4 4 4 ",
"C.C.C.u.1.1.2.2.2.<.-.-.-.B -.B C V V V l H J H H L { 7.m./.^.U.U.T.T.|. X7XjXkXkXzXjXlXhXeX7X7X5XQ.I.%.O.! Q T T R R T T a 4 4 ",
"H.H.C.C.K.K.C.2.2.2.<.-.-.B x B -.C C K U P U } L { | | j.].OX.X|.|.oXXX5XdXkXkXjXlXlXjXqX0X5XoX8X|.W.I.%.W W W W R R E W T f i ",
"4XaXL.J.J.J.u.2.2.2.0.<.-.-.-.B B :.8.4.P 6.o.{ P J { ..e./.OX8X=X XXX9XtXjXdXlXlXlXkXdXtX0X0X*XXXW.I.O.W E ) ' ' ) W E R R p s ",
"sX<XJ.J.J.K.C.u.2.1.1.-.-.-.;.<.<.,.4.4.4.3.k. .} L D G | t.U.|.8X7X7XrX9X7XtXhXqXjXjXqXyX0X9X5X=XW.U.Y.r.+.] +./ f b O.W W T a ",
"aXD.K.J.J.J.K.V.d.2.-.;.2.2.>.>.9.<.U J 7.3.v.{ &.X.{ G / $.Y.=X8X8X8X7X0X0X0XyXtXhXjXhXqXyX0X XXXoX_.U.+.) ) ' s f R ) ) T E f ",
"L.V.H.<XpXH.G.h.Z.d.h.d.2.-.<.>.8.V 3.7.v.p.m.| e.j...&.=._.=X.X`..X=XyXrXrXfXyXyXtXqXhXhXyXtX5XXXT.Y.r.+.+.W R 6 R ) ) / s f ) ",
"V.H.<X>XiXJ.V.A.A.V.C.<.-.-.>.>.V K 3.v.f.M. ./ @.| j.+X).l.&.+.r.|.7XtXyXyXyXyXrXyXtXtXtXqX8X7X5X^.t.] ) / F d m / / F R 0 i ` ",
"A.G.>XF.<XG.C.d.C.C.1.1.1.>.;.x K K p.f.n.7.] e.q.c.B.k.| { ..t.U.|.0XtX7XrXyXzXrX8XtXwX7X9X5XQ.|._.^.=.r.[ / ( [ ) d F g u n F ",
"F.A.H.<XpXaXh.s.1.2.-.B ;.9.>.:.f.s.5.:.U } v.M.b.o.{ { | ..&.&.U.|.8XrX8X8X0X9XrXyXyX0X7X6X*XXX Xt.$.=.=.=.=.*.] F d r g / ( 0 ",
"3X,XD.G.H.<XA.D.h.h.1.,.5.d.9.1.9.>.7.p.f.g.s.} _ ` ` | &.] U.T.XXOX=X`.T.Q.eXtXtXyXyXyXrX8X5XoX|.Y.T.R.r.+.+./ R R R E / F d * ",
",X4XaX>XG.V.h.h.h.g.s.0.s.d.0.,.s.s.M.A.s.,.U G  .e.y.t.T.T.|.XX.X.Xt.&.=.U.W.5XtXhX9XrXyXuX8X=X_.T.E.Y.U.=.=.] ) / / n f u 5 0 ",
"2X,X&X<X,XH.A.s.n.n.s.9.9.,.5.g.Z.n.8.5.9.g.n.p.6.z.^.^.y.^.(.E.5XXXU.^..X_.5X7X0XjXjXqX0XrX8XOX.X.X_.T.U.w.r.@.+.) ' ' R s n Z ",
"4XgXpX2X@XS.G.Z.V.s.,.0.0.d.K.V.9.V H s.A.A.n.S.b. .j.*.t._.Q. XE._.XXr.&.&.'.|.7XhXhXeXW.R.`.OX-X-X.X(.U.@.r.r.r.=.@./ d S y t ",
"4XsX4X4X#X#X,XZ.h.n.n.F.H.V.8.} o.7.4.K :.S.D.G.b.} c.z.|. X X5XoXE.oXE.T.E.5XeX6XeXQ.I.oX=X&.] e.`..Xz.*.&.t.t.=.) d Z d r t d ",
"%X%Xn.Z.A.A.>XD.D.#XH.V.:.U o.k.c.j.o.Y A H n.A.g.,.4.j.e.*.t.t.=.t.(._. X9XjXhXwXW.Q.qXqXU.Y.&.( ( /.`.}.z.y.r./ m | G d Z k c ",
"2XM.M.@X#Xf.,XaX,Xf.:.x H :.3.3.k.x.e.l.j.o.5.K f.n.N.7.| *.^././.^.^.Y.U.E.r.^.(.7XhXqX0XY.Y.r.' ] | z.}.).l.| ] &.` S d D c c ",
"2X#XS.>X<XF.S.n.b.8.J K ;.K 4.p.4.*.j.x.[.p.V f.D.n.n.4.6.{ | | ] ] &.t.^.=X=X^.Y.Y.|.7X7X*XR.U.$.w.U.$.) [ j.q.*.] ] S w t t d ",
"[.#XiX<XF.S.k.M.n.} n.d.9.:.M.p. .6.m.@X5.:.3.5.9.K 4.v._ *.].OX-XOX-X-X.Xr.&.l.8X=XY.r._.5XQ.#.%.I.W.I.P.I.&.j.*.*.| | ` S d J ",
"N.n.9.;.#XpX2XM.n.b.s.<.C K 4. .m.@XN.P 4.A.F.>.e A b.S.@X2XN.c.k.c.}.1XuXyXrXXXr.l.-XXX=.] ^.|.Q.W.#.P.~.!.~ @.*.j.q. .| ` S A ",
"k.:.K :.f.N.,X2XG.f.4.:.U :.L c.;Xn.U b.D.D.A ( [.,XG.n.f.v.k.../.^.'._._.'.1XuX-XY.=.'.XXR.' y. X%.O.Q #.I.U.t.] ` o.7.6.o.( S ",
"j 4.5.F.2Xn.@XpXF.v.k.k.v.k.k.@XS.K f.F.Z.k c.3X,XN.X.X.f.f.b.b.m.B.].]..X.XOXOX}.uX=X$.^..XU.&.y.^.@.W.w.' / [ ( / / { 4.} G D ",
"t 3.f.n.5.5.M.N.N.k.v.k.$X%X%X%XK h.D.S.D B.aXH.f.k.].p.5.p.b.b.c.X.j.j.].z.X.=.T.).uXrX$.l.).| ] *.).^.Y.l.t.| ] r.' / F { L } ",
"f.:.5.K K 4.;X2X@X7.m.{.$X;X2X4.n.G.>XD {.pXH.s.>.v.b.5.s.6.k.c.l.^.l.y.).}.| | |._.1X1X`.$.}./.x./.| *.z.6.G b $.r.@.b b / _ 6.",
"z H K U 3.@X;Xp.@X;X$X1X:X;XN.b.F.,Xp./.gXpXn.4.f.5.f.M.o.c.N.p.L L q.`..XY.z.o.z.^.^.1X1Xl.L o.7.m.*.X.6._ s O.+.) O.' E E / S ",
"L 6.4.3.N.v.$X2X:X} j.[.{.3XK 3.n.,X..sXgX<Xb.;Xn.>.f. .N.N.A d S ` ] | }.OXr.z.G ..*.c.c.k.) | 6.o._ _ 4.g Q $.W b ' ' ' E n b ",
"o.7.:.h k.N.N.3.a.c.m.[.;X,X4.n.#XM.e.pXaXF.m.#Xf.>.M.j.,X .F e.].{.-X'.j.{.Y.`.j.q.c g m.1X).] k.6 r w } q Q Q b R / E R / R b ",
"o.I 4.4.H J l U $X;X[.B.2XN.f.M.,Xk.x.gX3X@XN.S.b.7.M.c.;Xj./.:X[.{.[.z.j.].y.`.} e F ] c.$X}.@.}.] d S c.b T Q W ) ( s s / i a ",
"c.U P H H 7.:.3.p.p.p.p.F.4.v.v.#X*.x.gX4X#X[.c. .6.N.c.:X+Xm.c.c.k.} ( 6.].*.{.t c j./.[.$X{.+.).*.G _ c.( ^ ] } c 8 6 d D f b ",
"4.H A p.o.J K :.o.p.6.o.#XJ U 4.S.c.c.3X,XF.5.3.7.6.M./.c.[.q.{ ( G F o.B.| z.m.k L c.).[.@X$X/ Y.X.G G j. .Q 6.e 0 y c r 7 D d ",
"% 8 A N.;Xp.K I ].].x.6.S.4.f.A.5.f.n.n.f.s.z 9 z z l M.c.j.m.c.c.k.v.c.( ..x.A J k.e.^.N.$X@XR '. .F ( k.o.T } 7 G H J j r S D ",
"8 D U K b.v.A o.x.*.l.b.5.n.n.g.g.f.f.K A.D.N.`.[.8.H K b.x.t.....o.X.X.c.j.; e K } | ].N.@X6.R `.G S L k.o.p  .d H H J z y G L ",
"G a.6.:.n.S.p. .*.y.c.f.>.g.h.g.5.5.D ( <X<X&XOXB.g.5.g.8.l } X.e.c.q.} l A 8 {  ._ X.m.N.N.t @.1XG { L m. .f D D c 9 < < r F t ",
"o.c.m.f.g.b.v.} a.x.b.h.g.:.>.H 1 l c.&.@XiXH.N.k.7.S.3.} k t , , z j H K 7.Z ..`.].m.S.$X} i .XN.r _ L M.Z b S c c c y 6 r d Z ",
"A [.2XN.n.v.M.f.4.4.5.0.:.K j = h P $X^.*.F.<X@XS.F.:.Z  .4.f.4.{ N 5.5.4.7.| ).{.N.b.N.4.0 w.1XA m { L M.7 T / n d k j 8 r Z j ",
"} 4.b.c.p.5.f.K H K 3.>.K f.b.4.f.5.4.1Xy.| s.A.h.V.5.c.z.j.b.)..X&.G :.} 4.b.k.S.@XS.U 5 %..XN.d X.L j.6.4 Q E / S r 0 d D k A ",
"A K K 3.L K H K K K K e + = 4.M.4.7.f.7.:X^.( K 0.G.A.M.k.k.c.].).z.c.f.0.k.k.4.b.S.A 7 O.XX1Xc F } { [.w i ' E / b b F c w k N ",
"k L K K } K H P 3.J j A / / Z M.k.3.8.:.U [.j.S A >.h.S.S.n.b.m.M.N.S.M.9.8.6.:.7.3.F r.'.1XL g S G c.} * Q ! i u b ( k e k k H ",
"c k h H } 7.K H U H 3.K  .F d k [.7.:.P K N m.].&.F c P s.g.f.S.#XA.A.f.f.;.l e A 3.J } 7.A r { D q.k.+ p #.~ R b ( c k L J A A ",
"w e e < A v.v.L k U _ L J ( / s Z [.6.U P L h H m.].t.E b r w c A v v k t 5 - c 7.v 3.o.o._  .D o.M.: 4 ! #.~ / | Z k H 4.3.k - ",
"k h e = e A 3.v.G J 7.L J o.] &.F Z b.k.L A l k h l p.[.}.^.r.@.@.$.w.Y.Y.r.&.m.H k.N.n.M.b.3.} 4.= @ T ! W W { D _ A P } A 8 y ",
"J I L A A P 5.Z.b.G 3.4.7.7.c.Y.r.F 8 } k.7.} P K j j e A P 4.k.[.{.{.[.m.c.4.j J M.n.5.4.p.P :.- @ T Q E E { D o.6.J 3.k 6 8 k ",
"J L J A k K 8.8.f.j. .7.k.b.b.l.y.r./ 7 k 7.m.k.} K } A A G Z c w r / d 9 8 w : H :.5.3.K P J :.- p T T [ X.J _ } 4.4.j @ Z j l ",
"l H L o.D k H 3.5.7.( } 6.f.f.6.Y.'.y.' s - t } c.b.4.L U } o.U A _ e. .} G H k l z e l l P 7.A + p O.+.( L o.o.k } k 7 Z k = e ",
"K :.3.} } Z k K f.f.{ S 3.K 3.4.j.^.r.&.^.r.b 7 ; c 4.c.c.p.p.L L 4.{ 4.o.j.k.b.7.z k H H 4.6.6.G ..e.{ J L A o.P 9 - L H j k h ",
": 9 H 3.7.{ Z H 5.f.4.S _ 3. . .L X.r./ ] y.R.%.q 4 @ + 8 k } 7.6.6.4.p.p.} H e % X O o 9 3.P 7.3.} L { 4.{ } o.9 @ g e j h h 9 ",
"y k , ; h 3.o.l J 3.3.3.Z P F m G o.&.[ S 0 b / ' #.~ Q p 4 @ @ O O O O X X   @ 7 a i 4 * e K L J L o.k.4.4.6.e 6 Z Z D h > > h ",
"r w j j h , L } l K :.K e : J 6.6.o. .&./ f E %.t.y.@.r.e.{ G ` F f p i p T u n / O.w.O.E S z D  .7.J J K 3., - y J A A j < , e ",
"Z Z k k l A k J K z H h c k 4.3.} 4.J *.O.R @.=.e.S g 3.9 % + k > G / s b R s 0 ' w.I.O./ 6.4.3.4.4.} 3.P l 6 d Z o.3.J j > > & ",
"% t L P A A J e 3.> ; U v.p.L 7.c.j.o.L / ] ' ] ..s o.9 0 0 S j - ; A m ( ) n n ' $.$.%.( 3.G 3.} U :.:.h J A c Z j A A l l $ $ ",
"; ; , l K l H N > e 9 3.4.5.A I j.*.j.}  .) W @.[ F l + z H V , c 5 Z 6.d ' =.R b ' ' ..H A 6.4.P K K h H 7.L D A V J P H N h 1 ",
"+ = k 8 , :.l 1 e J L l 3.4.:.A o.o.4.4.3...' %.E G ; 0 l J H K H / ) L E r.@./ n ' &.U J h j L 4.3.h 9 A 4.4.J A J :.< o > l z ",
"r 6 - w ; = e h k t 6.Z U 3.4.7.H 7.L L P } &.! / } 6 b J V H V e k +.o.( @.E E R ` L L } 6.e A L j l A U J U K A H f.e e :.V $ ",
"k c r - = , H l L { { { N p.v.7.J l l Z J H _ E m L t s k h h > 5 d ' G d E b ' ..9 c D L o.3.e t L P :.4.P A J A A P < x 2 o , ",
"- 9 y e o % I A A L Z 4.l 4.7.A e , :.J Z L A G p d J u y ; + 4 0 w { w m E E { H A - _ k.} j O + A J 3.5.4.P A J l h $ > > < < ",
"r % ; + 8 6 e L N A c U H H { e j U N H Z  .Y 4./ u A L u 0 q a 7 s L 7 n n G A J L Z 6 L e @ i 5 : J U f.5.K A H H e e % & h K ",
"r 6 8 ; t t , A k H A A o.; , A J v A e y d L o._ r 7 w } ] R f E ( 6 7 m J e A A e A 3.k 4 W [ n y 9 J P :.P H v j , h l z j & ",
"y S d e 9 e , l j A A k H   e I A e c ( G L G ..{ k 0 a 5 ; 8 t r + O y k j d y L J U e * c ..| / Z = , A A A e j j j , 1 $ O O ",
"o 8 e 9 < < ; e j h c w j 6 y H 9 t Z _ F Z A _ S k c b p 5 # # # # w k , k ( Z c P 9 @ r e j A L Z y 6 9 A , > 9 e 9 j 6 $ = < ",
"+ O - , , e d t h 2 = o P d 7 k k d D k ( d e A S d Z d p b b a 7 D k e Z t { } A : - w 8 - ; k t , , t 8 < e l < , 9 > c : . o ",
"  X 8 = 6 w d k l % + ; J r 4 r J S Z t D d - ; A n m k b i s d G j k J U A Z U : - 6 ; 8 S o.o.8 9 , % : e 9 k 9 e j l e l , % ",
"- - , + 0 t 6 8 , w D y K w q u c D t Z Z c 0 6 8 S S N Z i s J e c } 3.J A A % @ Z 8 9 ; , H . w ; % ; > 9 > j h > j H j e h , ",
"% $ , O 6 w 6 8 e k k t V - @ 5 - v e k k 9 Z m r w y t k k A < k k K K j k o X 7 c , > . 9 1 O k % = o $ o . . e e j j e < > h ",
"O % $ @ ; % + > 1 k e h x + @ 4 @ , e = , 9 l D d 0 e Z D V > , c L h j A o X 5 r , > e ; e $ + 9 ; % O o o X   O h < < h > , > "
};
