/* XPM */
static char *north_64x64[] = {
/* columns rows colors chars-per-pixel */
"64 64 242 2 ",
"   c #212C3F",
".  c #1C334C",
"X  c #24354B",
"o  c #2A3749",
"O  c #333C4C",
"+  c #253B53",
"@  c #2B3D53",
"#  c #273F58",
"$  c #313E51",
"%  c #103E67",
"&  c #3A414F",
"*  c #2D445C",
"=  c #2C4158",
"-  c #334155",
";  c #34455A",
":  c #3C4A5C",
">  c #394758",
",  c #1B496A",
"<  c #1B577A",
"1  c #0F4771",
"2  c #294A65",
"3  c #344B62",
"4  c #3B4D62",
"5  c #334F69",
"6  c #3C546A",
"7  c #385269",
"8  c #285878",
"9  c #3C5B74",
"0  c #355B76",
"q  c #2F506C",
"w  c #3B627C",
"e  c #434D5C",
"r  c #444B56",
"t  c #4B525D",
"y  c #46505F",
"u  c #4F535A",
"i  c #445365",
"p  c #4B5563",
"a  c #435569",
"s  c #46596C",
"d  c #4B5B6C",
"f  c #4C5866",
"g  c #535A64",
"h  c #535E6B",
"j  c #595E66",
"k  c #445C72",
"l  c #4B5E71",
"z  c #465668",
"x  c #5C636C",
"c  c #56616D",
"v  c #4B6275",
"b  c #48657B",
"n  c #546373",
"m  c #5B6672",
"M  c #5C6875",
"N  c #546A7C",
"B  c #5B6B7B",
"V  c #536779",
"C  c #5F707F",
"Z  c #65686D",
"A  c #646B73",
"S  c #6A6E73",
"D  c #626E7A",
"F  c #606770",
"G  c #6C7177",
"H  c #64717D",
"J  c #6B737C",
"K  c #72767B",
"L  c #74797E",
"P  c #777778",
"I  c #74726F",
"U  c #817E7A",
"Y  c #83807C",
"T  c #167094",
"R  c #296484",
"E  c #3A6A87",
"W  c #3A748E",
"Q  c #267795",
"!  c #397A96",
"~  c #2C6F91",
"^  c #105680",
"/  c #466C84",
"(  c #576E81",
")  c #4C738B",
"_  c #47748C",
"`  c #547185",
"'  c #5C7284",
"]  c #58788C",
"[  c #477A94",
"{  c #597D93",
"}  c #647583",
"|  c #6A7681",
" . c #6D7984",
".. c #6C7D8A",
"X. c #647A8A",
"o. c #747C83",
"O. c #797E83",
"+. c #727E89",
"@. c #707780",
"#. c #637F91",
"$. c #33829E",
"%. c #1A94AD",
"&. c #158BA8",
"*. c #3688A4",
"=. c #3893AC",
"-. c #2B91AB",
";. c #35A3B7",
":. c #1B819D",
">. c #47859D",
",. c #568499",
"<. c #6E808E",
"1. c #7C8185",
"2. c #74828C",
"3. c #7C848B",
"4. c #7C868D",
"5. c #678698",
"6. c #748691",
"7. c #7C8A93",
"8. c #7C8E99",
"9. c #758A96",
"0. c #7C919C",
"q. c #69919F",
"w. c #488BA4",
"e. c #588CA3",
"r. c #5898AC",
"t. c #4E9AAF",
"y. c #658EA1",
"u. c #6896A8",
"i. c #7698A7",
"p. c #6A99AB",
"a. c #49A7B8",
"s. c #56A7B8",
"d. c #51B2BF",
"f. c #68A6B5",
"g. c #78A8B6",
"h. c #70ADB9",
"j. c #33B0C2",
"k. c #57BBC7",
"l. c #4CB1C2",
"z. c #65B6C3",
"x. c #78B9C3",
"c. c #79C4CC",
"v. c #67C2CB",
"b. c #5BC0CC",
"n. c #828485",
"m. c #818689",
"M. c #84898C",
"N. c #8A8D8D",
"B. c #8A8884",
"V. c #838C92",
"C. c #888F92",
"Z. c #8C9294",
"A. c #84939B",
"S. c #8C959A",
"D. c #8B969B",
"F. c #929594",
"G. c #969896",
"H. c #949A9C",
"J. c #9B9D9B",
"K. c #979996",
"L. c #91908C",
"P. c #A19E96",
"I. c #9DA19E",
"U. c #A2A39D",
"Y. c #A9A59A",
"T. c #B1AB9D",
"R. c #8C9CA4",
"E. c #849AA4",
"W. c #939EA2",
"Q. c #989FA0",
"!. c #8CA2AB",
"~. c #87A3AD",
"^. c #95A1A6",
"/. c #9CA3A3",
"(. c #9CAAAD",
"). c #94A4AA",
"_. c #87AAB5",
"`. c #93ADB4",
"'. c #99ADB3",
"]. c #89B2BD",
"[. c #99B5BB",
"{. c #A2A5A2",
"}. c #A5A8A5",
"|. c #ABACA5",
" X c #A4ABAB",
".X c #AAAEAB",
"XX c #B1AFA4",
"oX c #ADB1AE",
"OX c #B3B3AB",
"+X c #B8B5A9",
"@X c #A2B1B4",
"#X c #ABB4B3",
"$X c #ABBBBC",
"%X c #A6B8BA",
"&X c #B2B6B1",
"*X c #B5B9B4",
"=X c #BBBCB4",
"-X c #B3BDBB",
";X c #BBBFB9",
":X c #A3AFB1",
">X c #C2BEB1",
",X c #BCC2BD",
"<X c #B6C1BE",
"1X c #AEC1BF",
"2X c #C4C2B5",
"3X c #C3C5BC",
"4X c #CBCABD",
"5X c #C7C7BA",
"6X c #D2CCBA",
"7X c #87BCC5",
"8X c #9DBAC1",
"9X c #A7BDC1",
"0X c #88C6CC",
"qX c #99C3CA",
"wX c #8DCDD3",
"eX c #A9C5C7",
"rX c #BBC5C2",
"tX c #B7C8C7",
"yX c #AAD2D4",
"uX c #B7D5D4",
"iX c #BAD0CC",
"pX c #C4CBC5",
"aX c #CBCDC2",
"sX c #C4CCC7",
"dX c #CCD3CB",
"fX c #C9D2CA",
"gX c #D3D3C5",
"hX c #D3D5CA",
"jX c #DBDBCB",
"kX c #D7D8CA",
"lX c #CAD9D3",
"zX c #D4DBD2",
"xX c #DCDED1",
"cX c #D0CFC1",
"vX c #E0DECD",
"bX c #D8E2D7",
"nX c #E3E2D3",
"mX c #E9E6D4",
"MX c #E9E9D8",
"NX c #F1EEDA",
"BX c #F4F1DD",
"VX c #E6E2CF",
/* pixels */
"& r & r Y 6XT.Y P P K.U.XX2XN.1. .6.( 3 : P L.P.P x m 1.g l s O t F P m.rXA.(.-Xh.w i 9 + > j j F.2X>X>X+XH.o.B V.S.9._ N ^.q.5.",
"t Z x S K.6XY.B.U P |.L.L.B.S m.F.4.( k & u I P u r g n.m M d : H Z.N.m.#X..6.'.f.0 @ * 3 d O.N.|.+XXXXXJ.1.O.V.F.V.X.' Z..XE.X.",
"1.K.U.K.K.Y.I I I B.S Z B.P I F F n 9 s $ t S Z x x Z J 4 ; - J  X{.J.J.{.} d E.5.3 > d | 7.G.F.J.N.B.K.1.m O.G.C.+.A.H.H.5._ / ",
"=X4X>X2XXX+XZ N.+XP.n.B.P I j > e ; * 4 $ A N.M.g N.{.C.J h y 1.J.W.D.Z.{.| : } ` @ J 3XgXkXgX5XOXJ.=X=XK.M.J.V.+.2.6.v b ) _ [ ",
"+X2X5X+XT.+XP.B.P r Z P S f - - r i h - e o.C.Z.Z.4X,X#X#X#X}.m.1.} B J 1.| d H V : {.gX&XJ.J.J.F.G.G.Z.3.U.M.V.S...' v N ' ) >.",
"B.m.F.n.Y.2XP.j Z u I j g e : r t f h - f 3.O.o.A J.M.7.R.).^.O.V.S.Z.H.{.#X}.J.V.A {.F.d J L A j g Z.H.o.1.L o.v k ` k c ` _ W ",
"J 1.P K.VXVX|.x Z S K u u x x F h x m i x M.O.1.t N.Z.H.A.5.<.B 2.oX3X3XhXxXhX3X}.m.U.m n o.c h t r F.J.3.N.J 7 # s b 9 c / E w ",
"M.O.L.OXMXbXpX2X|.N.G.Z.G.U.OXG.1.C.G.m.Z.C.@.J S XXJ.V.6.....^.3XjXnXMXBXNXMXzXrXI.M.D o.D x g g t K.N.3.D 3 * * ; 4 3 c 0 9 } ",
"J N.oXaXbXyXiXiXD.f x O.G.=X4X.X3.Z..X}.;X X}.C.N.OXZ.}  .A.3XmXNXNXBXBXNXMXzXuXqX'.3.A D A A A L t B.P n 2 + = = 4 6 : 6 0 9 b ",
"D G.4XnXlXqXc.x.,.M .XnXjX5X&X(.D.{.|.C.<.'.fX&XM.Z.M.7.Z.kXBXNXMXmXnXmXjXrX8X0Xc.].V f | o.J L F & x t + . . X o = = ; a 0 w 2 ",
".X4XMXlXiX_.f.f._ 4.2X2XJ.V.V.A.' o.K.H +.}.#XR.D 3.=XaXgXBXNXvXhXpXaX,X X@X8Xx.z.z./ i M D o.M.N.}.G.O.S f p O e d h Z.(.!.~.] ",
"jXmXbXyXeX!.w.! ` L Y.m.K Z.H.V.4 J N.o.G.Q.9.9..XjXBXBXBXMXgX2X3X-XH.A.$X#X$Xf.l.a.w k H O.G.F.Z.G.C.O.O.J J d o.+.4.:XeXeX_.{ ",
"jXmXbXx.z.e.~ E <.m.J.O.1.G.m.V ; x 3.G.Z.o.D Y.nXBXNXnXdXkXgX4X*X^.V /.H.6.i.$.=.d.W 2 6 n J H n V s 4 s 6 n V Z.H.oX(._.7X>.w ",
"eXqX0Xx.yXi.~ E X.J.K.Z.Z.1.J d i 3.I.J.1.h A 2XVXkX4X&X X3X&X XR.A.V./.} ( ,.=.$.t.! 0 ' 6.S.7...] ` ' ....A..X3XfXfX7Xg.z.~ [ ",
"v.d.h.tXpX[.y.{  X|.L.N.N.1.J O.L L L.F.o.g S U.XXXX2X}.G.|.M.B ' M J } ' +.6.r.=.e.,.#.^.*X,X-XE.<.X.} 6.^.gXjXnXiX0X0Xf.a.T *.",
"j.a.r.[.E.i.e.[ ^.M.m.Z.L x S O.x B.+X2X{.m.N.N.F.J.J.m.G.G.1.o.| n J H.H./. Xr.! { ' W.pXhXzXzXiXE.} } A.kXNXMXnXyXx.v.;.-.T $.",
"z.h.w.w.i.[ R { !...D J F g j t G.nXNXnXkX=X|.+X+XJ.U.U.G.1.o.D H m C./.F.C.q.R q 6 m }.3X3XsXiXqXg.X.} /.MXbXuXuXwX;.j.=.g.~.u.",
"z.=.r.r.g.[ E i._.' } G.{.N.N.K =X4XOXM.8.8.L P.XX|.H.o.A m i p h M L M.O.| W < 2 - f N.V.S.A.) r.f.q.6.=XlXwXc.0Xb.a.f.[.fXuXeX",
"a.s.iXlXzXrXsXlXeX8.V.U.G.L n.L K.K.N.m h y & P J.G.1.K A d i p & x g F a 5 , 2 + ; r x D } b 0 _ >.] 0.,XiXc.k.k.%.e.pXzXlXuX0X",
"*.iXNXNXNXBXmXzXeX`./.J.m.3.J.}.XXN.x > e O o L 1.J.K.N.1.B p y g J J m 7 2 . X + ; e g A H V b 0 / ( A.-XaX7Xd.%.Q ].eXiXx.c.c.",
",XVX6X5XOXJ.J.-Xx.e.6.{..X&X3X&X|.L h f e O t P O.P K g e > p J h J m n V E = > p i m 3.O.n n B N ` ..#XaXjXbXuX*.e.7Xz.x.s.eXk.",
"pXgXXXN.t G G.Z.[ ! 6  .J.H.H.G.J J H.N.1.O.1.O.m.x o   r g J A f n d h n w 5 m | m J | } v : n B l 8.tXiXfXyXwXt.p.a.;.s.w.x.=.",
"(.gXY.I P n.G h 0 ~ 3 c ..4.+.2.h A G.1.J.J.L.F j e o o r e t & & : & > p 9 + - 4 ; h D v 6 i d n N _.0X0X0Xk.b.w.!.x.a.t.! t.w.",
"S.pXoXZ g & O ; 0 8 ; d B ..6.V.h g L F.OX{.J.K N.G A J m D A o.1.A F G 3. .o.J  .4.4...X.( 2.o.V.oXtXx.d.a.-.;.w.:XzXzX7X~ *.e.",
"^.@X(.*X&X..s 5 E w = a H 4. .M e S Z.{.{.}.V.1.L.L o.3.o.4.1.O.1.A L L J G L o.2...' 9.9.8./.aXvXMXmXbXlXeXt.T [ ~.].eXwX! ~ e.",
"A.R.9.#X<XE.8.X.]./ = ( R.(.R.8.m.{.{././.D.2.} $ d n B v s ; ; : X X X @ @ + * 3 6 k 6.4.#XjXMXMXnXnXnXzXzXuXe.! w.w.7Xk.Q ^ [ ",
"H 7.M W.'.] } n `.0 k #.R.).8.A.3.{.|.{.Z.4.|  .1.*X-XpXrX$XW.(.A.B k 7 l n v B 7. X=XgXkXjXMXmXnXkXrXtXeXyXyXqXi.! Q x.j.T R 5.",
"n 2.n 8.~.` v > 8.6 0.9.A.0.).A.o.}.{.M.3.4.V.4.1.cXnXxXzXlXbXnXiX9.| n +.|  .&XnXmXnXnXjX2XjXjXtX9XeXtXtXeXqX0Xp.R *.z.;.T 0 / ",
"Q./.M.9.i.b ; ; ..4 X...7.A.R.).J.{.Z.N.3.O.M.M 4.hXhX*X.XrXfX$XqX5.n | 3.@.G.vXnXkXaX3XgXoXaX#X$XrX9XtX[.8X7Xc.r.8 w.a.-.8 / ] ",
"gXkX=XoXR.v @ ; | : M 2.V.H.#X,X}.C.o.o.A h A d H./.m.J O.6.<.8.f.E + c A m.gXvXjXaX3X3X(.D./.W.#XR.'.].u.u.w.l.f.8 [ *.w.i.[.[.",
"MXjXkXdX-X6.4 : } B ..J.aXnXMXMXnXaX&XJ.m e c > K Z.o.o.4.D k s W < X d O.|.gXkX2X{.H.A.} V.S.A.} k 0.i.5.,.[ s.r.0 8 W !.dXzXlX",
"sXrXdXtXeXR.N B 6.7...}.gX3X=X,XzXzXzXfXi.H o.M m.Z.3.O.m a a d 0 2 + h J J.5X>XJ.3...+.D | H D ..M.6.#.5.) w W [ 9 0 E.4XjXzXuX",
"E.@X%Xg.].(.D.} V ..S.&X5X|.J..X/.A.8.y.[ 4 S./.G.H.| D H M d @ + # : d p K.5X+X1.O.| n o.Z.M.M.N.G.V.<./ 8 / ) E 5 v }.aXhX$X8X",
"H.R.y.p.g.i.9.N 6. X/.3X2X}.Z.J.V.' k ( E *  .S.L O.M.O.D : 2 * - * d } +.|.OXU.L O.n d Z.+.O.M.N.4...#./ b / w 5 3 n Z.OX#Xi.i.",
"N 5.E.`.i.[ ) ( W.@X.X2X|.m.Z.1.n k 3 6 9 + B 7.1.m.J : : i ; d d i D } Z.OXF.N.x A p S A h 1.3.3...H b / w 0 q + X e A O.} k / ",
"<.^.A.5.E 8 ] ^.3XgXvXkXI.M.o.: ; 3 3 V s X B J G.H.C.J D m h H } 3.S./.,X&XOXZ.d K }. XM A A J o.n 4 ; 6 q q 7 * @ > K m.h * @ ",
"| B b ) 8 w E.3XjXnXMXmX=X3.i ; 4 6 k H a ; 2.S./.Z.J m n A m o.W.*X,X,X,X,XY.1.m x K 4 n V.J m 4 * 3 3 : 9 9 6 3 a m L O.d 6 @ ",
"m a 3 0 0 ..aXhXhXnXnXzXaX.XD 4 a s H } d n 7.Z.O.o.h i m o.A {.aX<X(.pX#XR.C.O.A e y o e O.N * + @ 2 3 3 3 3 6 3 l | o.D 6 7 X ",
"m i a l a H.gXrXdXkX<X9X8XeX'.2.n D | 4.m J A.7.M H p h J J f &X,X).(.,X'.E.H m f > r e h a 2 X + @ * ; 6 # @ = : +.} m l b b = ",
"e : h h H oX3X$X-XpXtX`.9Xf.p.i.6.^./.}. X.X(.H.W.W.V.F.Z.G.1.oXW.^.^.).).9.n V.4.F.S.V.S.o.+.|  .| V..X%Xq.} } 6.R.A.8.A.$X[.0.",
"t p 4 4  .3XpX-XsXsX].y.].t.$.E V 8.W. X-X-X#XW.V.2.H n i f f M.D V.| B } d - n M x h x J D  .B n a B 0.5.b c n n  .B k V q.,.9 ",
"O $ o > V.rX$X'.tX`.f.W g.f.u.q.#XzXmXnXMXnXbXlXdXfX$X(.8.V a H. .B a k q + 3 3 d : f }.,XrX9X_.5.3 i ` 3 . f J.#X<X8X_._ w 8 # ",
"o & h V.#X%X[.@X9Xp.p.[ ~.~.i.:XjXjXaXjXnXzXiXiXzXnXMXlXeX.XZ.H.} ..A.9.9 s ' } V.J /.xXlXg.[.tXyXg.v N a $ m.&X=X-X$XeXx./ 5 3 ",
"> g W.#X:X[.fX%X[.y.u.E 5.i.!.aXaXgX/.3X=XrXsXlXdX-XeX0Xx.#XJ.S.2.4. .' 9 4 | V.M.A F.*X#.) 9.9.!.7X) n d e L G.W.A...,.r._ 6 a ",
". o 2.!.R.'.sX_.i.y.g./ { !.,X3X=X/.N.{.F.8.#X9X].5.<.0Xx.E.3.S.o.H D ' 9 n V.Z.3.t Z ..b N ..| ..[ 2 = H L M..X0.<.2.b ~ E k X.",
"- - H A.| A.tX_.y.`.[._ ] (..XoX{.o.o.H.V.2.8.p.i.` 7.eXc.g.V o.n n n V 6 H V.M.1.r A C.M n J D ( R , X f M.{.G.V V N w [ [ 5.R.",
" . .2.2.> D tX_.{ `.].E v 3.O.Z.J f L Z.M.3.4.8.5.9..X@X7XqXu.d i d h B n O.O.J x O m.H.J A 4 a q 8 2 ; ..H.J.J V * * 3 9 / 8.#X",
"A.7.V.L r O.$X~.) `.].0 ; D J K M o.F.G J o.3.+.9.#X^.2.i.h.t.5 p | C./.#X#XoX#XS.h 1.m.D d 3 6 q q 2 : B o.O.A ; + + @ 3 } *XdX",
"k B D G j K /.'.` !.g.8 - A K A g x x J G.O. .| H } N S.<Xg.*.q D H.H.Z.2.6.D.9.5.` r x i * . ; 2 + . s } ..2.H 4 - n V..X5XaXtX",
"s k 4 F Z L F.`.` !.g.2 r O.m.K F S G A o.H B e p n H J.` $.Q 2 d +.Z.Z.3.+.} ( ] _ s 2.} a : v 3 a a n } } ( B d M =XkXgX3X-X%X",
"n B D N.S x o.`.] i.g.2 > L N.N.m.L S J L x d h A J V.| w R < + i D 3.o.2.4.2...` ) N 9.A.2.2.9.X.} n } ..6...D H G.4XpX#X8.<.i.",
"/.&X=X=XN.S 1.`.` 6.h.2 r L N.1.J S G K J g f p M Z.3.B w < , * z m J ....} } B ( b A.-XfXrX,XrX,X*X.X/.:X,X*X&X=X5XaX%X9.X.` 5.",
"gXaX3X4X5XU.Z.!.N H g.2 r K G A x A J J G x A f m A : i 0 < + ; D | D B B B V B }  .,XrXtXeX9X%X%X%X@X'.$X$X@X@X-XaX3X'.{ <.` ` ",
"aX3X,XaX5X|.N.!.V B g.2 e A f F x A x g j A g p A g o X # , . > B D M M n l a l B D /.i.5.) ) { #.#.] { 5.{ #.A.@X,X-X).) / ) q ",
" X.X#XfXtX-X3X#XV n g.* e x x F x x A J G x y r p y o X + 7 - | V.4.4.V.o.| | S./.4.' ) / _ E { 5.u.q.5.i.5.W.pXzXzXdX$X5.` ) 0 ",
"/.#X,X$X8X9X#X#XM c i.: A n.N.m.V.N.F.J.}.{.3.| Z.H.2.B m Z.J V.V.4...o.| 2.7.S.S.D ] e.y.i.`.pXdXzXlXfXeX,XjXnXxXzXdXtX[.q.,.i.",
"}.#X(.!.`.g.y.6.d : 9.o O - : e e t p p p y : ; a a l : e D p J H v s a 4 3 3 k V s i.>.`.eXhXbXbXbXuXqXfXvXkXhXrXrX9XqXh.] R.'.",
"S./.W.9.y.$.W } d > 6.$ - c m d D M n k ; ; @ 4 : ; s 3 6 ( d 3.o...X.' v 7 i.%X%Xi.y.u.xXmXbXyXk.k.-.y.gXdX%X<X-X%X_.h.h._ <.E.",
"| +...X.,.w.p.9.V : 2.i i m o.m.G.H.O.n n B d D J B ' } V. XZ.3.n n V V n <.[.7Xh.p.q.u.yXlXyXl.&.-.i.&XpX[.>.).).[.f.t.a.Q 0 ,.",
"D | d * ` i.~.5.N a ..h | M.Z.m.N.o.n B H o.Z.Z.4.o.V.&X4XcX=XM.d n n H C ] u.f.[.hXkXrXc.c.l.%.T E.dXpX$X`.[ 5.E._.*.:.%.:.< 8 ",
"M B d 6 k k 6 w 9 ' /.J..XOXJ.J L | M J Z.OX3X3XOX}.2XgXkXkXdX.XB n c i : ' $XfXkXxXbXlXh.;.%.T 8 ).eX[.g.s.~ _ q.g.Q T &.Q Q , ",
"M n z a a ; * 2 5 V.aXgXgXpX*XN.J A A G.5XgXaX,X&X4X4X4XgXhXiXeXi.B d a d  XbXvXjXsX0Xk.Q T T 1 2 5.f.h.;.%.T 8 _ f.Q < &.Q Q 8 ",
"y : p i - ; = X d {.4X3X*X%X'.H.Z K .X4X5X2X#X.XJ..X2X3XoX:X].z.s.` k 4.oXrXyXeXeXr.;.%.! !.~.( 6 ^._.t.&.T ^ 1 0 u.8 R =.:.< 8 ",
"X o y > ; @   X m G.m.M.Q.!.p.5.3.Y.2X|.I.Z.6.2.M }.I.S...9.y.=.-.,.i.<XhXeXh.a.a.Q Q [ oXpXtX].q.[.u.$.T ^ 1 % , ,., R %.Q w b "
};
