/* XPM */
static char *south_64x64[] = {
/* columns rows colors chars-per-pixel */
"64 64 244 2 ",
"   c #4A2A19",
".  c #532E1A",
"X  c #542B15",
"o  c #55321E",
"O  c #5C331C",
"+  c #67381C",
"@  c #763C1C",
"#  c #5C3A24",
"$  c #573623",
"%  c #4C3020",
"&  c #643C23",
"*  c #6B3D22",
"=  c #623E28",
"-  c #713F21",
";  c #6C4125",
":  c #65422B",
">  c #6B452B",
",  c #6B462C",
"<  c #734325",
"1  c #7B4625",
"2  c #744A2D",
"3  c #7B4B2B",
"4  c #774728",
"5  c #6A4931",
"6  c #734E33",
"7  c #7A4F30",
"8  c #755136",
"9  c #7C5334",
"0  c #7A563A",
"q  c #7C593D",
"w  c #74543B",
"e  c #795134",
"r  c #76401F",
"t  c #7C5D43",
"y  c #765A42",
"u  c #7E6147",
"i  c #7D6852",
"p  c #833F1A",
"a  c #974B1E",
"s  c #8B451D",
"d  c #834926",
"f  c #834D2A",
"g  c #874C27",
"h  c #964D21",
"j  c #85512E",
"k  c #8C522D",
"l  c #8E582F",
"z  c #93552D",
"x  c #9B5629",
"c  c #835533",
"v  c #8B5631",
"b  c #855936",
"n  c #8B5A35",
"m  c #845B3C",
"M  c #8B5E3A",
"N  c #805738",
"B  c #935B33",
"V  c #9A5E34",
"C  c #935D36",
"Z  c #A55A28",
"A  c #A25F31",
"S  c #8D613D",
"D  c #87603F",
"F  c #9C6135",
"G  c #94623B",
"H  c #9B643B",
"J  c #9C693E",
"K  c #976237",
"L  c #AB622D",
"P  c #A46334",
"I  c #AA6532",
"U  c #A26539",
"Y  c #A46A3C",
"T  c #AA6C3B",
"R  c #AC6936",
"E  c #B36C36",
"W  c #B2713D",
"Q  c #BB753C",
"!  c #AE6B37",
"~  c #C0783E",
"^  c #825E40",
"/  c #846244",
"(  c #8C6443",
")  c #8C6A4A",
"_  c #896749",
"`  c #936641",
"'  c #956A44",
"]  c #9C6C43",
"[  c #946D4B",
"{  c #996F49",
"}  c #9C724C",
"|  c #97704C",
" . c #866D53",
".. c #897258",
"X. c #947353",
"o. c #9A7553",
"O. c #947A5D",
"+. c #997A59",
"@. c #A36F42",
"#. c #A86F41",
"$. c #A47145",
"%. c #AC7443",
"&. c #A3764C",
"*. c #A5794E",
"=. c #AB7B4D",
"-. c #AD7847",
";. c #B37643",
":. c #B47945",
">. c #BB7B44",
",. c #B47D4A",
"<. c #BA7E49",
"1. c #B87741",
"2. c #A47B54",
"3. c #AA7E53",
"4. c #A27C57",
"5. c #947E62",
"6. c #8B7A63",
"7. c #C17E44",
"8. c #9E815F",
"9. c #B6814E",
"0. c #BB834C",
"q. c #AD8154",
"w. c #A4835E",
"e. c #AC855B",
"r. c #AE885E",
"t. c #B38454",
"y. c #BC8651",
"u. c #BC8A55",
"i. c #B18659",
"p. c #B38A5C",
"a. c #BB8D5A",
"s. c #B78857",
"d. c #BE915D",
"f. c #9C8668",
"g. c #9E8B70",
"h. c #A28563",
"j. c #A38C6C",
"k. c #AA8A64",
"l. c #B28D62",
"z. c #BA8F60",
"x. c #B59165",
"c. c #BC9363",
"v. c #BA966A",
"b. c #BC9A6D",
"n. c #B5946B",
"m. c #A38E71",
"M. c #AA9373",
"N. c #BC9D72",
"B. c #B59B75",
"V. c #AB906C",
"C. c #BDA27A",
"Z. c #C3854C",
"A. c #C7864A",
"S. c #C48C53",
"D. c #C88E54",
"F. c #CB9155",
"G. c #C4935C",
"H. c #CA955B",
"J. c #CD995E",
"K. c #C69258",
"L. c #D39B5D",
"P. c #D29556",
"I. c #C29662",
"U. c #C59A64",
"Y. c #CB9C63",
"T. c #C39D6B",
"R. c #C99F6A",
"E. c #D29E62",
"W. c #C19E71",
"Q. c #CCA26C",
"!. c #CCA169",
"~. c #D4A165",
"^. c #D2A56B",
"/. c #DCAC6D",
"(. c #D7A669",
"). c #C5A374",
"_. c #CAA673",
"`. c #CAAB7C",
"'. c #C8A779",
"]. c #D4AB73",
"[. c #DAAD72",
"{. c #D3AE7A",
"}. c #D1A770",
"|. c #DCB175",
" X c #D5B27E",
".X c #DBB47C",
"XX c #DDB67C",
"oX c #E3B475",
"OX c #E4BA7B",
"+X c #E2AF6E",
"@X c #D8A05F",
"#X c #B7A183",
"$X c #B99E81",
"%X c #C8AD83",
"&X c #CCB389",
"*X c #D3B483",
"=X c #DCBA84",
"-X c #DBBD8A",
";X c #D6B989",
":X c #D4BC93",
">X c #C9B595",
",X c #E2BE83",
"<X c #E0BF89",
"1X c #DEC18D",
"2X c #DDC494",
"3X c #DBC59B",
"4X c #E3C48C",
"5X c #EBC98D",
"6X c #E8C387",
"7X c #F1CD8C",
"8X c #F0CA87",
"9X c #E2C692",
"0X c #E5C995",
"qX c #E4CC9B",
"wX c #EACD96",
"eX c #EBD29C",
"rX c #ECD198",
"tX c #F2D599",
"yX c #F2CF91",
"uX c #DCCBA5",
"iX c #E3CEA1",
"pX c #E6D2A4",
"aX c #EBD5A3",
"sX c #EED9A6",
"dX c #EDDAAB",
"fX c #E7D6AA",
"gX c #F1DEAC",
"hX c #F2DBA4",
"jX c #ECDDB3",
"kX c #E6D9B7",
"lX c #F0DFB1",
"zX c #F4E1AD",
"xX c #FAE6AA",
"cX c #EEE1B8",
"vX c #F4E3B4",
"bX c #F3E6BA",
"nX c #F6E9BB",
"mX c #F9EBBC",
"MX c #F9E9B4",
"NX c #F6EBC3",
"BX c #F9EEC2",
"VX c #F5ECC6",
"CX c #FBF2C7",
"ZX c #F7F1D1",
/* pixels */
"6X[./.[.~.u.G.,.U H J H H K j G G.u.t.=.} { ' m 7 9.%.$.U P V z d 1 1 + 6 ^ m M S 9 > ] ` m q ) G C c = ) | M S S 9 : S M 9 9 2 ",
"wX4X4X9X9X9X4X|.u.%.$.$.] H j ] R.I.c.z.p.4.4._ > @.F V z z z z k z k r 2 M ( N 7 9 2 ` G S ( ' ` M c & 9 b ; 2 9 , o 2 2 ; ; + ",
"zXtXtXtX6X7X8X7XOX/.H.0.,.&.G c ] ] ] ] ` ` ( 5 . < d d 1 d d d d d d @ 2 N N 8 & 7 ; 4 j v b N 9 4 * X # 0 8 8 8 8 , : > > & $ ",
"yX7X6XOX6X5X8X7X|.~././.S.-.K < 7 K K K C n c 7 3 c c j j j f &   , m M ( m N 2 6 N N 9 9 N c b N 3 + . ) o.X.| [ ' ( b b b 9 7 ",
"6X,XOXOX|./.OX(.Z.E.|.oXL.,.H v ,.0.0.0.,.:.-.%.@.Y U H U U F f $ w.x.x.l.r.e.q.e.e.3.3.&.} G n G ] n : X.X.[ [ ' S M n b b N c ",
"{.{._.Q.I.-.-.c.a.p.c.I.a.t.G ] S.y.0.,.0.Z.0.$.F V V V V V V d # k.b.n.z.p.p.p.i.e.e.3.3.} G ] *.} G > _ X.( ( b M S M n b c c ",
"VXbXvXvXpXa.).bXaXqXvXdXpXqXi.3.~.S.0.,.>.:.T T Y U H U F F V g 8 x.v.x.i.q.q.3.=.3.3.*.$.] H $.&.] G & , b b N N N c c 3 1 < < ",
"bXvXvXvX0XU.*XdXqXvXnXvXvXeXc.z.wX[.S.<.;.W ;.:.%.U U U P V z 1 , e.l.q.$.] ] ] H J ] ] H J ] ] &.] G &   ; < < 4 < ; * O O . . ",
"nXnXzXeX<XQ.I.qXvXvXvXvX4X=XR.p.5X5X(.D.<.:.:.-.Y U U P V V z 1 5 r.i.=.&.$.$.$.] J H G n b 9 c S n 4   ; H V V V z k g 3 3 ; + ",
"sX0X5X5X.XU.=.c.}.}.XX].Y.~.I.$.K.H.Z.S.<.W T U H V B k j j f < # m M m M b b n c 3 1 9 4.h.o.) X.[ 8 . 3 U H F K B z k f f 1 - ",
"XX].^.^.Y.9.] e.%X;X).W.T.*X).%X&X*Xc.x.N.l.l.` < q +.+.O.O.O.O... .u t  .i .. .t : $ h.B.N.l.+.+.o.` > < V F V V B k d 1 1 < @ ",
"2X;X;XaX9Xt.2.kXZXBXdXpX=XqXNXCXBXnXaXpX9XpX*Xa.M C.3XB.M.j.j.j.j.h.j.g.f.5.O.5.O.u w B.C.N.x.4.[ o.' 3 . < n C v d 1 @ + @ + + ",
"dXqXgXyX4XY.s.qXaXdXeX0X=X0XCXBXNXgXqXdXsX{.G.a.$.%XaX;XN.h.h.j.j.h.+.X.o.+.f.f.O.t / N.N.b.x.3.' | ' f   o 9 b * + + + & O O O ",
"dXzXrX6X4XF.-.U.<XdX,X0XdXnXCXbXaXrX4XsX9XQ.Y.I.$.b.nXfX'.l.h.h.w.2.o.4.h.f.f.O.X./ 6 w.x.z.p.q.] &.] j O ( =.&.7 9 n G G n v c ",
"sXeXeX0X(.S.$.U.jXbXdXvXbXdX9X].~.^.^.^.Y.Y.Q.R.$.&.`.'.).'.).v.l.l.e.e.w.o.} { { ) : 0 } &.*.-.H J ] n > q.3.&.M S J H K C v k ",
"aXrX6X|.|.~.%.*XCXNXqX<X-X^.Y.Y.U.Y.Y.Y.Y.!. XH.$.' :XjXjXcXdX9X'.l.k.e.w.w.4.} ' ( 6 w.r.r.i.q.*.] j < > i.t.=.` M H H K C v g ",
"eX5X6XXX6X~.,.0XaX<X].^.(.Y.Y.U.U.Y.!.}.].9X=XG.%.e.2XpXqX;X*X*XU.c.W.x.k.w.2.} { ( 0 l.c.p.p.i.q.=.H < 8 p.3.=.] M H B v c f 1 ",
"qX,XOX[.(.D.t.0X<X|.^.~.Y.Y.Y.!.^.^.|.XX1X=X!.Y.=.l.=X1X=X~.G.u.u.;X XR.c.p.3.&.} ' 0 r.a.s.a.i.t.3.$.f b i.3.*.] j 1 < < 3 1 1 ",
" XY.J.K.S.>.J p.H.H.U.Y.Y.H.U.Y.~.^.[.}.^.Q.!.U.] } R.Q.Y.H.K.U.U.}.^.^.!.U.d.s.=.' , &.u.t.t.t.3.%.H < 9 t.=.] n 1 3 j j g d d ",
"3.] =.c.U.a.} } z.T.U.u.-.$.=.] $.i.i.z.c.v.c.p.[ ) 2.r.e.} ` ] &.=.t.i.i.t.%.J c 2 2 S G M G G G n 4 O 9 =.$.J K C B B k k g g ",
"*X*.`.tXyX6XOX,X5X5XoXE.Q.2X-X] V.fXfXjXcXcXjXfXfXiX2X2X&XB.( X.2XqXqXeX4X[.K.%.< M p.t.=.&.@.] ] K C 3 9 3.=.=.@.H V C v k k k ",
").i.XXyX6XOXOXOX7X7X5X5XtX5X[.=.>XdXvXBXcXpXeXaXgXdXqX&X&X%X3.p.gXzXhXtX7X6XH.U f 9 $.] H C C C v v j < # G ] H H B j g g < k z ",
"c.=.I.OXOXOX6X7X7X5XXXH.S.Z.>.@.p.2XdXpX*X=X-X-X*X2XdXqX'.x.*.p.rXhXtXtX6X[.Z.T z # 5 9 q q w w w t 0 w w y w q w : : = #   j z ",
"p.J p.4XyX5X6X5X7X|.S.<.>.>.;.U p.pXpXdXdXsXaXqXaXvXnXvX4XU.} N.tXtXtX|.L.P.Z.1.U 8 h.V.j.j.j.j.f.m.m.g.g.f.f.5.6.O.O.O._ o = 9 ",
"T.=.9XtX6XY.y.H.Y.F.P.P.F.D.S.-.).gXvXvXsXeXeXaXgXgXdXdXeX`.3.c.wX,XoXL.F.L.F.7.T +.uX&XB.j.j.j.m.M.m.g.g.f.f.O.O.O.O.O.X.5 u X.",
"d.q.XX|.J.0.S.S.<.0.D.F.P.~.E.,.c.4X=XQ.Q.Q.XX1X9X9XwXrX=XQ.q.2.OX(.H.Z.Z.A.A.7.Y #XVXqX'.b.M.M.m.j.j.k.e.w.+.X.[ X.O.O. .5 8 _ ",
"=.' q.9.-.;.:.%.%.;.:.<.Z.S.Z.Y ` u.t.u.a.G.U.T.c.T._.Y.d.a.` N 9.<.;.:.<.>.>.$.b >XbXjXaX;XB.j.h.h.h.w.4.+.+.O.+.O.O..._ , : u ",
"%X&X&Xl.M M &.e.'.W.z.x.n.e.G ) B.%X).b.`.'.`.%Xn.x.W.%X&X&X'.B.' M $X:X;X:X3Xx.9 >XVXvX9X{.v.e.h.f.f.f.j.j.f.8.+.[ ( ( / 2 $ N ",
"wXrX0XQ.J #XjXfXdXdXNXjX2X`.&.%XdXsXvXpXaXqXlXgXzXvXvXvXzXzXzXqXt.o.jXbXbXjX2X!.' B.*X{.G.u._.T.p.q.2.2.4.o.} ` M b ` [ ) 7 6 H ",
" X=X=XY.$.uXnXdXdXvXcX%XN.N.q.&XdXqX1XwXeX9X0XeXgXzXgXgXqX=XQ.s.%.} pXgXsX1X=X`.*.w.3X*Xc.T.-X=X{.c.p.4.o.[ G G ' | | [ ( 3 9 H ",
"s.U.~.y.*.fXvXgXbXnXiXv.b.b.3.i.].Q.].4X<X!.].=X=X{. X{.U.G.I.G.,.]  XeXeX9X0X=X3.B.fX-X;X2X-X{.U. X`.i.] K G ' } } o.| [ 9 c Y ",
"] -.,.%.&.jXnXvXbXvX2Xb.B.b.&.M c.!.^.~.Y.U.Y.G.G.H.Y.[.^.~.[.Y.,.S Q.XX.X].}.R.{ | -X=X=X}.H.a.U.U.a.s.3.2.} ] { } [ [ ' 2 < F ",
"n G K v q uXvXvXbXvXfX2XN.x.&.9 ] p.v.T.c.T.W.'.v.e.3.G G 3.p.e.} M } e.i.p.q.&.N q k.p.q.=.i.q.] H ] ] ` S M b N 7 2 2 , . . < ",
"n.b.l.` 6 C.dXvXvXzXbXiXx.p.&.H ~.|.OX5X4X4X0XeX.X.XY.C M.jXdXjXjXiX3XfX3XkXkXuX>X&X%Xl.k.>XuX;Xl.* t '.'.R.U.0.V < O < < < 4 1 ",
"C.'.v.*.^ j.1XdXvXbXfX'.l.q.] M a.Y.!.^.I.T.Q.~.H.J.S.J :XvXvXnXdX-X-XbXZXZXnXqX`.Q.R.'.cXNXjXaX Xc e.7XOXoX+XL.:.1 c v j k g d ",
"k.x.e.] ^ f.C.3XdXdX%XN.x.i.$.n u.=X=X].^.H.C | v.z.&.b &XqXvXaX{.2XNXCXnXaX*XI.d.R. XiXbXcXqX_.u.v -.OXoXOXOXL.,.u.0.P z g d 1 ",
"S ` G c 8 h.n.;XiXqX'.T.x.b.*.H H.,X/.L.L.S.q.{.OXoXF.K p.2XbX2XpXVXVXqX`.G.a.a.U.2XdXdX0X-XQ.y.-.c $.+XoXOX/.,.I.A.A.Q A d d d ",
"S ] J n 8 w.'.;X;X;X*X).b.'.p.9 N ] $.H @.J 2.,.,.$.V c p.jXVXjX2X-X{.I.u.u.G.U.2XdXpX0X6X].G.,.$.c C /.+X+XY.s.<.7.A.A.P z z d ",
"2 N n 2 # +.%X0X1X_.`.T.N.'.v.9 M %XqX'.2XuXcX3Xv.z.3 f.cXZXjX XY.H.a.u.u.u.I.Q.=X4X4X,X!.S.u.9.-.n g F./.oXE.1.E 7.A.<.W W R h ",
"b G ] G : ..M.;X;X-X1X'.'.).p.M Q.zXdX4XeX9X9XXXU.I.F l.jXiX}.H.U.H.G.G.H.d.T.=X4X0X].K.0.y.d.u.0.K B E.oXE.R I Q Q >.D.P.D.>.I ",
"N M G v 5 ..6.V.).2X9X-X*XR.=.G <XeX4X^.4X=X{.].S.0.V ]  X X^.].^.H.K.~.^.U.].=X].H.y.u.Y.Y.H.G.S.K s./.D.P A Q E Z a././.L.A.I ",
"2 9 9 3 5 ..6.5.f.B.`.-X=XI.=.` =X5X4X!.=XXX].].>.Z.z M d.Q.=X].Y.H.H.H.H.S.y.y.0.y.u.H.Y.U.Y.K.y.v a.~.7.>.Z.>.I %.H.A.A.~ E I ",
"& ; > * # i ....O.5.j.N.T.c.=.G }.4X0X^.XX{.}.].>.H.V 4 Y ,.S.K.K.S.0.0.,.-.%.%.,.,.-.%.%.-.,.,.J ; n ;.W W W P A R ! I L Z Z L ",
"o & = o   y  .....O.O.h.e.c.=.C I.0X5XY.XX].U.^.>.S.z 0 X.w.e.q.2.&.3.' M 3 ` p.p.i.@.3.c.p.a.=.c 2 X.4.3.3.3.&.$.] C 1 4 { q.T ",
"< 7 c 2 o y  . . . ...O.w.x.=.M _.9XOXK..X].U.Y.:.0.K &X4X0XqXqXqX3X2X*Xc.M ^.oXoXOX|.|.OXoXoX/.-.b.vXvXpXpXeX4X0X-Xt.f k.6X(.P.",
"< 3 c 4 # t _ _ / )  ...O.4.} S }.!..XS.(.[.~.Y.>.W ] 2X4X<X/.(.].[.[.^.S.B %.H.F.H.D.0.F.H.L.F.%.&XmXgXqXqX-X=X=XQ.-.B } Z.Q 7.",
"* < 4 < # t t u / / )  ...X.' M K.].<XS.}.^.H.J.>.W K `.~.S.0.>.>.0.0.,.T 3 M 2.l.N.r.e.l.r.i.J m fXvXgXsX0X_.Q.u.9.T V < ] i.$.",
"O + * + $ 0 0 u / ^ _  . .X.S 3 U K..XG.^.E.H.E.Z.7.V *.<.W T R S.(.}.S.B 4 c.9X0X9X-X=X XQ.Y.,.[ fXsXsXeX`.u.u.y.:.Y V 3  X6XoX",
"  . O o % 8 q u q 0 / ( ) ) b 4 z U S.u.Y.E.H.L.>.Z.F k.z.9.;.0.~./.~.S.W n y.Y.H.H.H.K.K.S.S.>.} qXqXeX=XG.u.Y.0.%.T F j }.oX(.",
"O * < < o : 8 w 8 8 m m M m 7 & k z U @.<.Z.0.Z.Q E $.<XOXoX(.~.~.~.D.A.7.V >.Z.D.H.Y.].=XXX^.S.2.;X X*XY.H.U.y.:.:.W V l J.L.P.",
"+ * * * .   $ = = > , , ; ; = & < f f c B F Y %.R k S J.F.P.P.A.A.D.A.A.Q F 1.H.qXvXbXnXnXnXnXsX2X{.t.I.].].K.0.,.:.R P l Z.A.(.",
"X . O O   % 6 0 q N N N 9 N M C C C K K H -.Q.*Xa.c 3 Y %.T Y T %.T R P z d Y -XBXBXBXNXcXqXU.>.R x h V a.Y.S.0.%.P R P d R S.oX",
"$ & , #   : q t ^ M m b c c n n B V K V V H ,.U.S.Y n.:X:X`.).:X*X!.).T.=.V ] fXMXBXMXdXhXD.L Z Z h a s < k Y W W W R x @ k T W ",
"= , 5 , o : 8 8 0 0 9 9 3 f j f j v B z k k B U ;.J R.XX<X<X<XXX[.|.XX(.H.Z.{.MXmXMX6XhXtXF.L Z Z h a s O + 1 z 0.Y.S.y.y.u.y.y.",
"$ = : : o = , , , 6 2 4 < ; * ; < < 1 1 1 1 d k z g $.K.^.|./.[.<XOX(.].J.F.aXMXMX6XOXMX4XQ Z Z a a s p O + 1 d @.G.Y.L.P.P.A.A.",
". $ # $   $ : 8 8 2 ; & & & * 4 2 4 < 4 3 f f j k 1 B T 0.J.E.(.(.E.L.J.F.^.zXxXtX(.gXzXH.L Z Z a a s @ O + j &.%XdXeX0.I I L L ",
"  . .     $ 8 ) M 3 * O O O O * < < < < 3 3 3 f g 1 1 k U :.0.S.S.K.S.S.S.^.tXhX[.,XMXwXD.E L Z a s @ + O _ uXnXMX4XH.I h h h x ",
"$ & : : : , 2 < < < ; , 9 0 N N N N M M ` ] } &.&.} q.c.). X-X9XqXqX0XqXqXqXwX<XH.=XtX~.>.I Z h s @ + X . | aXzX~.E Z a h 3.z.v.",
"8 q / ( / M M S S ( ' } &.&.} } &.&.4.x.`.-XqXpX1X1XdXgXgXvXbXnXnXaXbXBXCXCXmXvXdXaX<X].R.c.i.2.o.| [ ) D } Q.<XH.;.Y C b _ w.k.",
"6 8 6 8 b ` ] { ] { } &.&.' ] &.3.i.T.9XvXnXnXpXqXvXvXvXvXzXvXvXsX2XnXmXBXBXmXnXmXmXsXbXBXnXnXMXvXvXvXgX2XvXnXvXzXgXdXdXfX2XaXsX",
"6 8 q ( ' ' ' { | } } ] ] &.&.2.p.).9XvXCXCXfXiXnXnXBXBXBXmXmXmXdXpXvXnXnXnXnXvXvXMXpXqXnXvXnXnXnXnXnXnXaXpXnXMXMXMXMXMXMXhXeXeX",
"5 6 0 m M ^ / ( m 9 M ' | { | &.3.p.W.;XaX:XqXnXBXnXnXvXdXpXaXpX*XpXnXnXnXnXvXvXvXvXqX*XdXvXBXBXBXCXCXBXnX2XaXeXeXeXeXeXeX4X4X1X",
"# : 5 8 0 0 q 6 > 0 ^ / ( ( ) ) ' [ [ o.4.z.'.).W.b.b.W.b.v.b.x.v.eXsXaXeXqX9X1X1X;X'.).aXsXsXaXqXqXqX9X2X X'.wX0X9X4X1X-X1X1X-X",
", 8 w q t t 6 : 6 8 6 8 0 N N N N N N , 8 M M ( ( ( ` ' { } } [ } q.4.4.4.2.&.&.2.o.[ ) &.2.2.&.} } { ] ] ` ` 3.*.} { ' ' ' ' ( "
};
