/* XPM */
static char *sprite_64x64[] = {
/* columns rows colors chars-per-pixel */
"64 64 247 2 ",
"   c #271627",
".  c #271728",
"X  c #291729",
"o  c #2C1A2D",
"O  c #2E1E31",
"+  c #301F33",
"@  c #2F2033",
"#  c #312135",
"$  c #34253A",
"%  c #3A263C",
"&  c #36293D",
"*  c #382A3E",
"=  c #382136",
"-  c #44233B",
";  c #372A42",
":  c #3A2D43",
">  c #3B2D47",
",  c #3D3046",
"<  c #3E324A",
"1  c #37304D",
"2  c #3D3654",
"3  c #392E51",
"4  c #432B44",
"5  c #482D48",
"6  c #41334D",
"7  c #4A314D",
"8  c #433652",
"9  c #4B3553",
"0  c #443955",
"q  c #453B5A",
"w  c #4A3C5C",
"e  c #483858",
"r  c #563759",
"t  c #542E4C",
"y  c #653758",
"u  c #60314F",
"i  c #4A3E62",
"p  c #463D63",
"a  c #583D63",
"s  c #483E71",
"d  c #663D64",
"f  c #743D64",
"g  c #4C4164",
"h  c #4D446B",
"j  c #484468",
"k  c #534266",
"l  c #52456C",
"z  c #5B446B",
"x  c #5B4665",
"c  c #4D4874",
"v  c #544A74",
"b  c #5B4974",
"n  c #554C7A",
"m  c #584A77",
"M  c #57537C",
"N  c #4E5479",
"B  c #684569",
"V  c #77446B",
"C  c #684A77",
"Z  c #774A76",
"A  c #6A537C",
"S  c #775377",
"D  c #5C405D",
"F  c #884C7A",
"G  c #885377",
"H  c #894B6F",
"J  c #8E627D",
"K  c #3B5A9C",
"L  c #38679E",
"P  c #3A69A1",
"I  c #3A77A9",
"U  c #3E5CA3",
"Y  c #574D82",
"T  c #5A5284",
"R  c #5C558B",
"E  c #585A8B",
"W  c #5C5892",
"Q  c #494F9A",
"!  c #655689",
"~  c #78578A",
"^  c #625B94",
"/  c #645D9A",
"(  c #6B5B95",
")  c #775C92",
"_  c #6C4B8E",
"`  c #5B6896",
"'  c #4F6495",
"]  c #64658B",
"[  c #676597",
"{  c #796496",
"}  c #73749C",
"|  c #5755A9",
" . c #4B55A3",
".. c #685BA9",
"X. c #775BB7",
"o. c #7258AC",
"O. c #4768A9",
"+. c #5765AD",
"@. c #4674AA",
"#. c #5A65B3",
"$. c #4776B4",
"%. c #5976B8",
"&. c #4C6FAE",
"*. c #6A64A4",
"=. c #6A66A9",
"-. c #7667AA",
";. c #6669B7",
":. c #746AB7",
">. c #6878BA",
",. c #7874BB",
"<. c #6D76A9",
"1. c #5E75C2",
"2. c #677AC4",
"3. c #7A79C5",
"4. c #776DC7",
"5. c #785EC0",
"6. c #875885",
"7. c #915689",
"8. c #856798",
"9. c #986896",
"0. c #8B6F95",
"q. c #AD7292",
"w. c #875DB8",
"e. c #8F5AAD",
"r. c #8766BC",
"t. c #9775BA",
"y. c #8D6EAC",
"u. c #A978A8",
"i. c #B877B9",
"p. c #AD6AB9",
"a. c #A35B8C",
"s. c #C674B5",
"d. c #8878C8",
"f. c #8F6CC5",
"g. c #B475C8",
"h. c #AD72CC",
"j. c #CE7DC6",
"k. c #378AAE",
"l. c #379AB4",
"z. c #39A7BA",
"x. c #4A87B4",
"c. c #5487B9",
"v. c #469DB7",
"b. c #5599BB",
"n. c #7489B3",
"m. c #48A9BC",
"M. c #4DAEBD",
"N. c #658799",
"B. c #49C1BF",
"V. c #5A99C5",
"C. c #548FC1",
"Z. c #6889C9",
"A. c #7686C9",
"S. c #6696C8",
"D. c #7895C8",
"F. c #768AD2",
"G. c #6E95D2",
"H. c #7798D8",
"J. c #58ABC7",
"K. c #58B8C7",
"L. c #4AB0C3",
"P. c #64A7CA",
"I. c #73B0D2",
"U. c #55C7C9",
"Y. c #59D7CC",
"T. c #55CBCD",
"R. c #69CBD5",
"E. c #76C7D8",
"W. c #77D4DB",
"Q. c #69D9D8",
"!. c #5BE2D1",
"~. c #79E8DC",
"^. c #68EADB",
"/. c #77F4E4",
"(. c #7CE4E2",
"). c #76D3E3",
"_. c #8889B9",
"`. c #978CB7",
"'. c #AE8AB3",
"]. c #9EA4BE",
"[. c #C88DAF",
"{. c #D4AAB9",
"}. c #8887D4",
"|. c #9987D9",
" X c #8698D8",
".X c #9998D9",
"XX c #8E90CD",
"oX c #AF8ECE",
"OX c #85A6D4",
"+X c #88B8D9",
"@X c #8FB0D5",
"#X c #B5A9D6",
"$X c #AEADD2",
"%X c #9B9CE4",
"&X c #B996E6",
"*X c #AD8EE2",
"=X c #93B2E6",
"-X c #A6A6E3",
";X c #B6A6EA",
":X c #B9B7EB",
">X c #AAB6E6",
",X c #C99ACA",
"<X c #C897D8",
"1X c #D38DD0",
"2X c #EB95D2",
"3X c #D5A7C3",
"4X c #D8BAD9",
"5X c #CFB2D4",
"6X c #F5B6DA",
"7X c #E9AED5",
"8X c #C39AE8",
"9X c #D291E5",
"0X c #E49AE9",
"qX c #C6A5E6",
"wX c #D7A9E9",
"eX c #C9B7E7",
"rX c #D3B0EF",
"tX c #E7A9EB",
"yX c #EFBAE9",
"uX c #90CFDC",
"iX c #81E7DD",
"pX c #8AD7E3",
"aX c #97D8E6",
"sX c #90C6E3",
"dX c #ADCCEA",
"fX c #99E9E9",
"gX c #8AFBEA",
"hX c #91EDE7",
"jX c #AAEAED",
"kX c #A6F7ED",
"lX c #A6F5F2",
"zX c #B6F6F3",
"xX c #B2EBEF",
"cX c #BCC6DC",
"vX c #DAC6DA",
"bX c #ECCBD2",
"nX c #C5C8EB",
"mX c #CED3F0",
"MX c #F6D8E8",
"NX c #EAC4F3",
"BX c #E9D7F1",
"VX c #F5D9F7",
"CX c #F0CEEB",
"ZX c #CEF5F6",
"AX c #FAE9F8",
"SX c #FBF9FD",
"DX c #EDE6F3",
/* pixels */
"            . . . . . . . . X X X X X X X X o X X X o o o o o o o o o o o o o o . . . X X . . X . . . . . . . . . . . .         ",
"  . . . . . . . . . X X X X X o o o o o o o o o o o o o o o o o o o o o o o o o o o o o o o o o o o X o o X . . . . . . . . . . ",
". . . X o o o X o o o o o o o o o O O O O O o o O O O O O O O O O O O O O O O O O O O o o o o o o o o o o o o o o o o X . . . . ",
". . o o o o o o o O o o o o o O O O O O O O O O O O + + # # # # # # # # # # # + + O O O o o O O o o o o o o o o o o o o o o X X ",
". o o o o o O O O O o o o O o O o O + O + @ @ # O O # # # # # # # # # # # # # # # # + O o O O O O O O O o O O O o o o o o o o o ",
". . o o o o o o o o o o o o o o o + # # # # # # # # # # # # # # # $ $ $ $ $ $ $ # # # + O O O O O O O O o o o o o o o o o o o o ",
". X o o o o o o o o O O O O O O # # # # # # # # # # $ $ $ $ $ $ $ $ $ $ $ $ # # # $ # # # # # + + + O O O o o o o o o o o o o o ",
"X o o o o O O O O O O O O # # # # # # # # # # $ & ; & & & & $ & & & & & $ $ $ # # $ # # # # # # # # # + O O o O O O o o o o o o ",
"X o o o O O O O O O + # # # # # # # # # # # $ $ 0 N.< ; : ; > > ; ; ; ; * * $ $ $ $ # # # # # # # # # # O O O O O O O o o o o o ",
"X o o o O O O O O O # # # # # # # # # $ $ & & ; 2 N 2 , , , w 9 , 6 6 6 > : ; * * * $ $ $ $ $ # # + + # # # # + O O O O o o o o ",
"X o O O O O O @ @ @ # + @ # # # # $ & & ; : > > < 6 0 0 0 e e 0 0 0 w x 6 6 6 4 > > * & $ $ $ % - - - # # # # + O O O O O O O o ",
"o O O O O O O @ @ # + O @ $ ; & & & > > , 6 6 8 z z i k z b b b C z z k w e 8 7 7 7 4 : * % % % u q.y = # # # # O O O O O O O o ",
"o O O O O O O @ @ + O O $ 2 s 3 > , , 8 e q q g A ~ { 8.8.8.{ ) ) ) ~ A A C z w 9 9 7 7 7 : * - y q.f = + # @ # # O O O O O O O ",
"o O O O O O + # + O O # ; Y d.s 8 r z z 0.A 0.0.0.{ ) ( ( ) ) ~ ~ ~ ~ S C C C B a r 9 r J 5 4 4 5 t 4 # # # # # # O O o o O O o ",
"o O O O O O O # O O @ # > j Y p a 7.u.0.'.`.0.^ R ^ { -.t.t.'.'.'.'.u.9.7.~ ~ S B z r r r 7 5 4 4 % % $ # # # # # # O O O O O o ",
"o O O O O @ @ @ O @ # & 1 q p A 8.'.vX5X0.R W *.=.y.oXeXBXBXDXAXAXVXMXCX4X,Xu.7.S C B a r r 7 5 4 * % $ $ # # # # # O O O O O O ",
"o O O O @ # # # @ # $ > 2 j ] 0.$XvX'.) ^ ^ *.XX#XmXDXBXBXBXBX5X<X,X1X7XyXMXMX4X'.7.S B a r 9 7 5 4 % % $ # # # # # @ @ @ @ O O ",
"o O O @ @ # # # # $ ; 2 c [ n.>X$X{ [ W / -..XBXDXnXmXDXSXDXcX`.`.`.'.i.i.1X6XMXDX5Xu.6.C a r 9 7 7 B 7 $ $ # # # # # @ @ @ O O ",
"o O O @ # # # # # & 1 ] } n.dX`.! [ R / ,.:XDXmX>XmXDXZXdX+XI.@X$X$X#X,X,Xi.j.7XMXMXCX'.6.V d B r r '.B % % $ # # # # # @ O O O ",
"o O O @ # # # # $ > 2 c n.dX`.M E T [ ,.nXDXdX+XsXjXpXQ.R.W.W.I.P.n.n._.oXoXj.j.2X6XCXMX[.F V 6.B 9 r 5 4 % % % # # # # # + O O ",
"o O @ @ # # # # & 1 2 ] ZX].] E n ^ ,.cXmX=X+X).jXZXZX/./.^.Q.R.U.J.b.c.n.,.t.g.p.2X6X6XCX[.F V d r 7 5 5 4 4 5 $ # # # # @ O O ",
"o O @ @ # # # $ ; 1 g OX$X] ` h T =.$XmX=X+X).xXSXSXZXgXgX/.^.~.~.W.E.I.n.n.=.y.p.p.2X6X6XMX[.7.F V d r t 5 5 5 % # # # # @ @ O ",
"o O @ @ # # # $ 8 x ` +X] ` c v W .XmX=X+XE.W.ZXSXSXzXgXgXkXfXpXE.I.I.sX@XD.>.-.-.e.g.2X2X6XMXs.a.F Z B d y t t 5 $ # # # # @ O ",
"o O @ # # # # $ x 0.D.n.E N j T ,.mX>XOXuXpXQ.lXZXkXgXkXzXhXY.M.v.x.x.S.I.@X X,...e.e.1Xj.2XMX7Xa.F V G G V H y t % # # # # @ @ ",
"o O @ # # # # & > N  XM E i n ^ $XdX X+XK.W.fX^././.gXkX~.Y.U.U.K.b.x.@.&.D. XA.:.o.o.g.g.1X6XDX[.F d f H a.G a.y 4 $ # # # @ @ ",
"o O @ # # # # & ; ` n.c c l ! <.mX=X XI.J.E.hX^././.kXiX!.Y.iXaXsX+XP.@.' &. X}.d.t.( t.p.j.2XMXbXa.V y d G q.H f t $ # # # # @ ",
"O @ # # # # # ; 3 <.` c j c R $XdX}.OXP.J.U.Y.!.^./.fX!.Y.~.uXx.@.@.D.b.P  .>. X,.-.o.r.e.i.2X6XAXs.F d r V q.q.f t $ # # # # @ ",
"O # # # # # # & < >.N c p v ( nX-XA.I.b.J.U.Y.Y.!.hXhXT.T.fXE.K.x.L &.OX@.K O. X3.:.o.w._ p.2X2XMX3XF d r V q.{.V y % # # # # # ",
"O # # # # # # & 2 <.c c h ! `.mX XZ.S.b.M.K.T.U.Y.jXiXU.B.fXlXlXI.L O.OX%.K O. XA.:...o._ t.2Xj.6X4XF d r V q.bXH y % # # # # # ",
"O @ # # # # # & < ` c n A 8.5XnXA.Z.S.b.m.K.U.U.U.jXhXU.M.K.aXaXc.P &.@Xc.K O.OXA.:....._ t.9Xs.1X7X6.B r H q.bXH y % # # # # # ",
"O @ # # # # $ & > E n ! 8.oXeX>XA.G.c.b.m.M.K.m.L.pXzXQ.M.l.l.k.I I V.dX&.K %.=XF.;.;. .Q f.<Xp.s.7X6.d d F {.{.H t $ $ $ # # # ",
"O # # # # $ $ & ; n R ( oXt.$X-X3.D.c.b.M.v.K.m.z.U.zXkXY.z.l.k.k.b.aXOXP O.S.sXA.;.;.Q Q |.h.e.s.2X9.d V q.bXq.V 4 $ $ $ # # # ",
"@ @ # # # $ $ & > p / |.oX( $X.X2.H.c.x.I.m.m.L.z.z.T.zXzX(.T.U.R.jXsX@.P c.+X=XZ.>.+.....|.r.e.p.2X9.V F {.{.J B % $ $ $ # # # ",
"O @ # # # $ $ & > e -.<X8.! .X.X;.H.S.x.P.E.l.M.M.l.z.U.pXxXxXxXaXP.I P $.I.jXOXZ.;.Q Q 3.d.X.e.p.1X9.F [.bXq.G 4 % # $ $ # # # ",
"@ # @ # # $ $ & > a oXu.A n `..X;.G.H.x.x.uXE.m.m.m.l.l.z.z.m.v.k.I I x.I.xXsXS.Z.+.=.+.}.:.o.w.g.1Xq.q.bX[.G t * $ $ $ $ $ # # ",
"@ # # # $ $ $ & 6 S 3X6.C v _.-X;.2.H.S.@.V.pXfXU.L.L.m.l.k.k.k.k.v.K.aXZXaXI.Z.O.K  .A.3...X.f.h.1X[.bX3XG t - : & $ $ $ $ # # ",
"@ # # $ $ $ $ & 9 9.3XZ z l } >X4.2.G.G.c.$.J.pXfXhXR.K.L.L.L.K.W.fXzXZXaXI.S.&. . .1.F.#...5.w.g.7XMX7XG 5 4 4 > $ $ $ $ $ $ # ",
"# # $ $ $ $ & ; 9 '.{.C z v ! #XF.2.;.Z.Z.c.$.V.E.pXfXlXfXfXfXlXzXZXxXuXP.P.%.U +.$X%X1.#.5.X.h.tXAX7XG r 5 : 6 , $ $ $ $ $ $ # ",
"@ # $ $ $ $ & ; r '.{.Z a k m oX=XF.;.#.%.Z.D.$.c.P.E.pXaXfXfXjXaXsXI.V.c.A.#.O.A.AXeX#..XoXf.wXAX5XZ B S 4 > p > $ $ $ $ $ $ # ",
"@ # $ $ $ $ & * 9 9.3XV r e k 8.:XH. X#.#.A.#X%.@.@.x.C.J.P.P.P.J.V.c.$.O.O.%.Z.H..X3.2.d.oXrXAX4XS S S k > q p * $ $ $ $ $ $ # ",
"@ # $ $ $ & & * 5 Z {.G a 8 w b #X=X=XF.| #.2.%.%.&.@.$.$.$.$.I I $.O.&.%.Z.F.H.Z.1.A.3.*XBXBXwXu.S x e h 8 c 8 $ $ $ $ $ $ $ # ",
"@ $ $ $ $ & & & : r u.q.d e e k 8.:X=X}.4.|  .#.<XoXO.O.&.&.&.&.$.$.C.Z.Z.F.H.G.2.F..XeXBXeXoXoXA w 8 6 6 h v > $ & $ $ $ $ $ $ ",
"@ $ $ $ & & & & * 6 B u.V a e w b '.:X%X4.X.|  .t.f.+.&.%.%.%.%.2.F.G.G.Z.G.F.F..XeXNXeX|.|.1X6.q 8 6 6 g R i * & & & & $ $ $ $ ",
"@ $ $ $ & & & & & ; 7 Z 9.V r e a A oX;X|.f.X.o.|  .| | | #.%.%.2.A.Z.G.H. X-XeXnX#Xd.}.|.g.9.i 0 8 6 g *.R , & & & & & $ $ $ $ ",
"@ $ $ $ & & & * * * > 6 6.'.B r r k ) <X8X|.f.X.X.f.X.....;.;.>.2.A. X>XdXeX#XXX,.A. X|.h.p.z 0 8 6 w n.>.p ; * & & & & $ $ $ $ ",
"# $ $ $ & & & * * ; : > 9 C S z a a z 8.<X8X*Xh.f.f.f.f.f.d.}..X-X:XnX:X.X}.A.F. X%X%XoXi.C w 0 8 w _.D.c > * & & & & & & & & $ ",
"# $ $ & & & * * ; : : > 6 7 r C C z a z 8.<XyXwXqX8X8X8X8XqX;X:XdXdX=X=X=X X X;X;X&X9Xi.C w e 8 k n.D.N > * * * & & & & & & & & ",
"# $ $ & & & * ; ; : : , 6 6 7 e z A C z C 9.,XwXtX0X9X9X&X*X&X:XdXmXnXeX;X;XeXwX9X1Xu.b g w e M D.>.h > ; ; ; ; ; * * & & $ $ $ ",
"# $ & & & * * ; : : > > 6 6 6 6 8 w k b C C ~ 8.,XtXtX0X0X0XyXVXVXVXNXyXNXNXtX0XoX8.m g w k [ A.` 0 > > > : ; ; ; * * & & & $ $ ",
"# $ $ & & & * ; : > > > 6 6 6 6 8 e e w k l b ! ~ y.oX4XNXCXAXSXSXSXSXAXCX4X'.8.! b l v [ n.<.h < , , , , > > > : ; * & & & $ $ ",
"# $ $ & & & ; : > > , , 6 6 6 8 0 e w i g l m n ! ! ( { y.oX#X5XvX5X#X`.y.{ ! R T T [ } [ c q 8 8 , , , , , , > > : ; * & & $ $ ",
"# $ $ & * ; : : > , , , 6 6 8 0 e w w k l m n T ! ! ( ( *.-.-.y.y.-.-.../ / / ( / ^ R n h j i q q 8 8 6 6 , , , > > : ; * & $ $ ",
"# $ & & ; : > > > , , 6 8 0 q w g k l v n R ^ ( / =.=.:.,.r.d.d.d.d.d.4.,.:.-.=.*./ W R Y n c j g w q 0 8 < , , , > > ; * & $ $ ",
"# # & * ; : > > , , 6 8 q w i h v n R ^ / *.-.,.d.d.|.|.*X&XqXrXrXwX8X&X*X|.|.d.3.,.:.=./ W T n c h p p q 8 < , , > > : * & $ $ ",
"# # & & ; : > > , < 8 0 q i j c n R ^ ..=.,.d.}.|.*X&XqXtXNXVXAXSXAXVXNXrXrX&X%X|.}.3.:.=./ W Y n c j p 0 8 < , , > > ; & & $ # ",
"# # $ & ; : : > > , , 6 0 q w g l v Y R ^ *.-.:.,.d.d.}.|.*X*X8X8X8X&X*X|.}.d.3.,.-.*./ W T n c h p q 0 2 , , , > > ; ; & $ $ # ",
"O # $ & * ; ; > > , , , 6 8 0 w g g l v M R ^ / [ *.=.-.:.,.,.3.3.3.,.:.:.=.*.*.[ ^ R T n v h h i q 0 8 < , , > > : ; * $ # $ # ",
"O # $ & & * ; : > > , , , 6 8 0 q w g g l v n n T T R ^ ^ ^ ^ / / / ( ^ ^ R T T M v v h g g g w q 8 8 < , , , > > ; & & $ $ $ # ",
"@ # $ $ & & * ; ; : > , , , 6 6 8 0 0 q w g h l l l v v n n n n n n n n v v l l h g g w w q 0 8 8 6 , , , , > > ; & & $ $ $ $ # ",
"O # $ $ $ & & * * * ; : , , , , 6 6 6 8 0 q w w i g g g g h h h h h h g g g g w w w q 0 0 8 6 , , , , > > : ; ; & & $ $ # # $ # ",
"O # $ $ # $ $ & & & * ; : : , , , , , 6 6 8 0 0 0 q q q q w w w w w w q q q 0 0 8 8 8 6 6 , , , , , > : ; * * & $ & $ # # $ # # ",
"O # # $ $ # $ & & & & * * ; : > , , , , 6 6 6 6 6 8 8 8 8 0 0 0 0 0 0 8 8 8 6 6 , 6 6 , , , , , > > ; * * & $ $ $ $ $ $ # # # # ",
"O # # # # # $ $ $ $ $ & * * ; * : > , , > , , , 6 6 6 , , 6 6 6 , , 6 6 6 , , , , , , , , > > : : ; * & & $ $ $ # # $ # # # # # ",
"O O @ # # # # # # # $ $ $ $ & & & * * * : : : : > , , , , , , , , > , , > : > > > : : : ; & & & & & $ $ $ $ $ # # # # @ @ @ O O "
};
