/* XPM */
static char *west_64x64[] = {
/* columns rows colors chars-per-pixel */
"64 64 199 2 ",
"   c #0B0707",
".  c #0D0A0A",
"X  c #060304",
"o  c #130D0C",
"O  c #1A0E0B",
"+  c #16100E",
"@  c #1B110E",
"#  c #161111",
"$  c #1C1412",
"%  c #1F1817",
"&  c #1E1919",
"*  c #23140F",
"=  c #221612",
"-  c #231915",
";  c #2C1B15",
":  c #241D1B",
">  c #2A1E1A",
",  c #281711",
"<  c #331D14",
"1  c #361F16",
"2  c #26201E",
"3  c #2B211D",
"4  c #362017",
"5  c #3A2116",
"6  c #34231B",
"7  c #3B251B",
"8  c #3D291F",
"9  c #262221",
"0  c #2C2522",
"q  c #2F2826",
"w  c #2E2928",
"e  c #322722",
"r  c #342A25",
"t  c #3A2C25",
"y  c #352C29",
"u  c #3A2E29",
"i  c #3C312C",
"p  c #3E3531",
"a  c #3F3835",
"s  c #41271B",
"d  c #432A1E",
"f  c #4A2D1F",
"g  c #502F1E",
"h  c #54311E",
"j  c #432D22",
"k  c #492E21",
"l  c #443126",
"z  c #4C3224",
"x  c #42342C",
"c  c #4B362A",
"v  c #47382F",
"b  c #4C392E",
"n  c #533525",
"m  c #593725",
"M  c #5B3827",
"N  c #523728",
"B  c #553A2C",
"V  c #5B3C2C",
"C  c #423631",
"Z  c #453A34",
"A  c #4B3C34",
"S  c #473E39",
"D  c #4A3F39",
"F  c #533E33",
"G  c #583F31",
"H  c #613E2C",
"J  c #633C27",
"K  c #5E402F",
"L  c #4F4037",
"P  c #4D423B",
"I  c #544135",
"U  c #5C4233",
"Y  c #53443C",
"T  c #5B4639",
"R  c #56483F",
"E  c #5B493E",
"W  c #63412E",
"Q  c #6B432D",
"!  c #644534",
"~  c #6B4632",
"^  c #654837",
"/  c #6C4935",
"(  c #644B3C",
")  c #6B4D3B",
"_  c #724B35",
"`  c #794E37",
"'  c #714E39",
"]  c #6D503E",
"[  c #74523D",
"{  c #7C553D",
"}  c #7E583F",
"|  c #4F4642",
" . c #524640",
".. c #554A43",
"X. c #5B4D43",
"o. c #554C48",
"O. c #5B4F48",
"+. c #5E5047",
"@. c #5E524A",
"#. c #5F5550",
"$. c #634F42",
"%. c #615146",
"&. c #645145",
"*. c #6B5444",
"=. c #61534A",
"-. c #63544A",
";. c #62544D",
":. c #64554B",
">. c #69564A",
",. c #67584E",
"<. c #6A594D",
"1. c #6B594D",
"2. c #735542",
"3. c #785640",
"4. c #755946",
"5. c #7C5A44",
"6. c #745B4B",
"7. c #7B5E4A",
"8. c #705748",
"9. c #635750",
"0. c #665952",
"q. c #655951",
"w. c #6A5B51",
"e. c #6C5D53",
"r. c #715E51",
"t. c #7D614D",
"y. c #6F6056",
"u. c #6E625A",
"i. c #746154",
"p. c #7C6452",
"a. c #74655B",
"s. c #796659",
"d. c #76685E",
"f. c #7C695C",
"g. c #756A61",
"h. c #7B6D62",
"j. c #7E7166",
"k. c #7D7269",
"l. c #82583F",
"z. c #81553B",
"x. c #835C43",
"c. c #885E43",
"v. c #805F49",
"b. c #866047",
"n. c #8A6045",
"m. c #83634D",
"M. c #8B654B",
"N. c #8F684E",
"B. c #92664A",
"V. c #946A4D",
"C. c #916346",
"Z. c #836652",
"A. c #856955",
"S. c #8B6B54",
"D. c #836C5C",
"F. c #8B6F59",
"G. c #886750",
"H. c #936D52",
"J. c #86705F",
"K. c #8C715D",
"L. c #957156",
"P. c #997155",
"I. c #93735C",
"U. c #9A765C",
"Y. c #9A785E",
"T. c #A07A5F",
"R. c #826F60",
"E. c #847264",
"W. c #8B7563",
"Q. c #84756A",
"!. c #8C7A6B",
"~. c #8A7768",
"^. c #937661",
"/. c #937965",
"(. c #997A62",
"). c #937E6D",
"_. c #997F6B",
"`. c #997760",
"'. c #8D7E72",
"]. c #907E70",
"[. c #A37F63",
"{. c #95806E",
"}. c #9C826D",
"|. c #948273",
" X c #9B8473",
".X c #9E8876",
"XX c #9C8B7C",
"oX c #96887C",
"OX c #A1836B",
"+X c #A18772",
"@X c #A48A75",
"#X c #A38D7B",
"$X c #AD8C72",
"%X c #A6907D",
"&X c #B0937B",
"*X c #A18F80",
"=X c #A59384",
"-X c #AE9C8B",
";X c #AB9785",
/* pixels */
"# : 2 0 q r y r 0 e r i p C C Z D D Z A I I Y ..X.O.X.X.+.+.X.=.;.+.O.+.O.X...Y P P ....Y Y Y I Z x i i r u r y r 0 2 2 2 : % # ",
"$ : 2 0 q y u u t e r i Z P Y ..Y .. . ...X.+.q.;.@.@.q.q.q.,.w.e.w.=.;.-.<.w.;.=.-.=.=...Y Y Y Y Y A D C Z Z i x u r e 0 2 : $ ",
"$ : r u i x x Z v x x P Y Y Y ..X...X.X.+.;.,.y.d.d.a.d.h.d.a.d.h.h.d.d.w.r.<.w.e.<.:.<.=.%...Y Y X.P D D Y P A P D Z x t 0 2 $ ",
"$ 2 q r i Z A I A I Y I A A Y X.-.%.:.+.O.-.-.+.=.e.a.i.i.i.i.w.e.d.w.+...=.%.f.E.6.&.L P X...X.R X.....X.X.Y Y ..P D A x r 0 : ",
"$ : 0 : e r r r > e i v u u u v A A X...,.X.-.X.i e i F %.r.<.A A A A v $.s.R.~.f.$.Y u > 0 ..X.I F Y %...Y I L A u A A x i y : ",
". $ - o . - > e $ o $ $ > r > $ $ - x e e : t r : $ $ + $ - : 2 - ; 3 6 e t Z x Z t t r e - 2 r e r 3 : r v 3 0 u e e 3 3 - $ # ",
"+ : 2 3 e t t u Z A A A T R R R .. .D P D D u i i r Z A x u e e r t t t r r e 3 $ $ o - u i r y r e u r : $ o - - : 2 2 : - $ o ",
"r I &.6.p.S.I.I.Y.`.U.`.`.OXOXOX+X@X).~.!. X). X|.i..X#X+X.X|.).).).~.~.f.A.t.*.E v A *./.W.D.|..X+X XW.6.E 1.E.A.A.K.t.4.*.R x ",
"e b ! [ 3.x.H.V.V.H.S.S.S.I.I.I.I.Y.Y.^.K.W.}.+X+X_.&X&X@X(.W./.W.~./.D.D.K.A.G.S.E p.7.F.`.[.[.T.Y.S.m.I.S.F.[.S.7.M.) / ) ^ l ",
"; 7 B ! _ { { / / { b.M.M.S.S.G.Z.G.t.m.A.i.t.A.F.p.F.G.m.b.U m.F.F.A.4.4.K././.S.7.K.S.N.H.P.V.m.G.4.5.M.[ M.N.{ U [ ) / V c 6 ",
"< k V H V M J ~ _ } 5.x.5.x.G.t.4.7.7.4.[ 4.t.m.A.7.] 2.! 4.U 4.L.S.L.L.H.U.S.M.5.3.N.N.M./ 5.x.x.m.x.m.H.N.c.} / V ~ / W B n 6 ",
", 7 k M z g h J ~ ) ) 2.4.4.4.7.*.*.[ [ t.m.5.M.t.b.t.7.4.' / [ x.c.M.H.H.N.M.n.x.x.n.} ' l.c.x.} b.N.V.B.l.l.x.l.~ n V V n d ; ",
"= 1 7 z n M m n M ! _ ) ^ ( &.*.A.p.4.M.H.G.m.S.t.] 2.2.2.[ [ 5.N.H.L.H.M.N.} n.c.B.H.H.V.V.N.N.V.N.x.} _ c.n.{ ~ _ ~ / _ n s = ",
"= < 7 f n z N ! W W _ { ] *.&.( *.( U 7.5.7.4.*.*.4.5.} { { } M.P.V.x.V n.V.{ B.V.P.P.P.H.V.V.C.z._ _ _ ~ ~ M n j 8 j d f s 5 = ",
"* ; s m f 6 / ~ m W U ! ^ ) ( I N M z ) 7.! ^ 2.4.2.2.2.) / / ' [ _ W z ' / V [ ) ) [ ) H n M W H H H H H H n M N z N n f s 1 * ",
"@ < d n ) *.z B ~ U U G I I b c z n n z V U b B ^ / / [ [ 5.[ ! ! / [ ) / ^ ^ [ / / _ ~ _ ` _ ~ ~ Q Q Q Q Q m M n m m n n n d ; ",
"o ; 6 6 l ! c c ^ U I I A A G I N n B U / ) ! U K K U U ! / _ [ ' _ _ _ _ ` _ _ ~ V V W ~ / W W ~ M W _ _ _ ! V n M z d 8 j 6 = ",
"@ > 6 t l b A F I b A I A G &.%.U N B V z f z z n N V B V B B B M n z n n n z n n z z B V N k 8 d z K V n B K B z z k 7 6 6 3 $ ",
"o - > 3 6 6 t t j i v v A b I P b B j 6 l z k z n j j k d 8 7 s k f j d d d 7 7 7 6 7 k d d d 7 s f k j 8 j 8 d f d d 7 7 6 > $ ",
"  o o o o @ $ @ o @ $ = $ $ - $ - = $ o @ = ; , = = @ = * * * * * @ @ = * , = = $ $ @ @ = = = = ; = $ $ $ $ O o O O @ O @ O o   ",
"2 p  .o.@.u.d.u.+.P D Z y 0 0 P +.@.O.P +.e.j.d.e.y.q.=.X.X.X.,.q.q.d.j.h.h.d.d.e.q.@.X.q.g.h.k.g.g.Q.Q.g.g.u.9.X...P r p S Z q ",
"y P q.q.e.a.j.Q.j.d.d.h.Q.h.E.|.*X*X=XoX#XXXoX;X-XoX=X-X|.i.XX-X-X-X-X=XXX|.~.a.,.h.h.E.!.XX=XXX|.|.).~.!.!.'.'.Q.E.h.a.d.e.9.P ",
"0 i Z P P P Y X.,.=.X.%.-.q.e.e.i.i.f.E.s.i.<.e.i.a.E.'.j.,.E.~.~.~.s.:.r.r.e.i.=.<.r.1.1.r.i.r.i.A.p.i.e.<.e.a.a.y.e.e.<.X.P q ",
"q C Z S P P P D P  .X.+.+.9.q.,.y.i.i.s.r.r.>.<.r.i.s.d.d.d.a.s.f.s.s.i.f.f.e.Y Y +.X...X.....+.i.A.D.J.e.w.@...Y ..X.=.+.Y Z 0 ",
"9 p S ..+.+.X.X.+.=.,.=.;.q.e.e.e.e.s.D.D.R.D.e.s.s.R.E.E.E.D.R.D.f.f.>.X.X.:.i.i.i.e. .S P P Z &.K.E.6.X.X.Z P =.+.X...Y D Z y ",
": y i Z S A P ..+.w.e.<.e.e.e.1.<.i.A.W.W.1.F A $.4.D.K.A.p.p.1.r.>.>.X...X.X.%.%.%.Y Y X.P i x R <.-.I b b Y D A Y X.X.A u r : ",
"& y Z A P T ( $.*.4.6.6.i.i.i.p.6.*.4.4.7.*.*.6.t.Z.t.*.$.*.4.A.p.1.1.<.%.R I ..+.+.S Z D P Y X.X.Y A A b T %.D i r t u x t e : ",
"# : u A I T T ^ ! U ^ &.*.1.8.4.*.*.] ) ) ^ *.1.>.E A A Y X.>.1.*.&.&.,.w.y.q.@.o...| P | ..w.+.I A I F A A u x C C A A P C i 0 ",
"% 2 r Z A A F v b G U I I E E $.E E $.*.6.6.i.i.i.e.X...R ....Y I R X.=.,.q.;.+.@.o.| | ..o.q.q.X.R A r t e x u i Y Y A P Z i 0 ",
"$ 2 r i Z Z i i I R X.X.R Y I R &.&.>.>.1.e.<.<.,.<.:.%.X.=.%.:.:.$.R X.&.,.-.+.P o.o.| o.@.9.e.=.Y i r 0 > r 0 S D A A x t 0 : ",
"# 2 y C x Z x R %.=.<.<.%.%.I T >.X.Y Y R Y Z t t u t t i i i Z Y I A P A P  ......... . ...o.#.O...Z r 0 0 y D Z i u r r r r 2 ",
"o : e t 0 r u r u A Y ..R Y e 6 A I x x u e - - $ $ $ > u C p C Z Z i p i i p S P | o.| P | P S D Z C x C A Z i r i x i i y 2 $ ",
"  . o o o $ - $ o o O $ $ $ o O $ - @ o o @ $ - - - - - - 0 0 : @ o $ $ % : $ & 2 0 9 : 2 : 0 2 : : r r 0 0 2 : > : : $ $ $ $ o ",
"o - e r r e e x l x r r l j c c l t l A I I I X.:.,.:.&.b t t r r b F b t r 6 3 - $ @ - 3 3 3 $ $ $ + $ $ > ; > : 3 3 3 3 3 2 $ ",
"r I *.4.4.*.4.G.S.S.S.Z.I.`.(.^.K.Z.G.S.K././.). X). X}./. X/.}.OX$X$X}.A.6.D.7.7.*.( 1.K.K.T X.s.6.T 4.7.7.Z.A.D.F.K.W.D.p.4.A ",
"- j U ) 2.2.] ) 4.M.H.G.I.U.I./././.^.K.S.F.p.Z.F.I.`.`././.K.Y.L.M.M.M.m.K.(.t.m.7.*.p.p.&.6.K.U.F.t.I.F.t.A.p.7.t.m.7.4.) U x ",
"- 6 z G / ] ) / / { 5.5.S.F.p.6.p.p.p.F.Z.Z.p.6.p.p.4.2.4.4.7.4.] ) 3.x.5.4.4.2.5.] 2.4.*.^ ^ 4.4.7.A.6.p.6.4.4.7.4.[ ! U c c r ",
"o > l G ^ ] ] ! W [ 3.M.F.Z.D.s.:.*.( 4.t.p.Z.p.6.6.6.7.4.4.4.4.7.4.[ 2.[ ^ U V U U U &.E *.K.K.Z.S.S.m.m.5.[ ) ^ / ! V B l t > ",
"$ 3 j c U ( T N n / 2.7.$.X.>.i.i.1.*.( *.p.K.^.W.K.A.G.G.A.Z.m.5.*.&.&.T E &.1.p.D.A.S.I.H.m.[ ) ] t.t.7.2.! ^ U U ^ G l i t : ",
"@ 3 j B U $.*.c M J V I F A R %.6.( ( &.*.p.p.t.Z.M.7.Z.t.t.t.7.4.4.G.G.G.S.H.S.S.S.N.x.! V ! [ v.A.4.G b *.4.) ! G c U B c j 3 ",
"o ; 6 t c T *.*.B V t 6 c b L E U z V N l T ) U *.2.2.[ ! B c U U U V V ! ) [ 2./ ! V j z ^ 5.n.} / j t T ^ V d 6 6 6 6 6 > ; $ ",
"@ - 6 j j j c T U V B c ( T I F b j c c F T b b B ~ _ / ' ) ) 2.7.4.2.) G b B V U ^ ' ) ! ~ ! M n M U ^ U B n k B N n z k j 7 - ",
"o - > 7 d j k N B N ! G U F I l 8 j c c U ^ 2.2.^ V M n n V ! ! U / [ / ) 2.) ^ / W J m M Q W M M V ! V z j j z N z d 7 7 8 6 $ ",
"o $ - ; 6 7 s k z B U B z j t 6 7 N U ! W W V B M M n k f n m M n n z d f z n h n z n n z d 8 k d 7 7 7 6 F G B z d d 7 7 7 6 - ",
"o - ; ; 4 7 7 d l l l c j 6 6 6 c B M n d ; 8 s k f k d d 7 7 7 s d d j s < 5 7 7 7 7 d j z z z z z d 7 6 8 7 d d k z j 7 , - $ ",
"o $ $ = = = = , > r 8 6 6 ; 6 7 8 7 6 1 < ; < 1 5 < < 6 7 7 , 4 f z j r j 8 ; 4 6 7 7 7 d d d f s 7 6 7 ; ; < 1 7 d j 8 6 , , $ ",
"X   o o o o o o o @ @ @ o o @ @ O O O o O O @ @ O O o O , = o O = = @ O * ; $ = @ * * = @ * * * O @ * * O o O O * @ o o o @ @ o ",
"$ > r t x Z I Y A i r 2 r r t r t Z Z C A ..+.=.+.Y D A i P +.X.%.%.&.&.<.:.X...x Z ..e.w.X.P Y L Y +.:.R ..R Y i A S i r 0 0 : ",
"u ..,.,.s.E.).'.~.R.f.f.D.f.E.E.~. X.X).|. X#X#X%X%X;X;X#X#X X X X_.OX@X#X+XW.1.:.}.%X-X-X=XoXQ.E.E.j.Q.!.|. X].+.r.f.d.i.<.X.i ",
"r D X.=.>.a.D.D.D.D.R.E.~.E.E.~.~.W.D.D.D.D.E.f.i.s.J./.}./.W.A.f.*.T ( Z.K.J.E.~.).)./.E.f.d.d.].|.|.|.!.!.s.A u R *.1.i.:.L r ",
": y C A I ..1.W.).~.E.a.a.e.,.w.e.i.s.s.f.f.f.i.r.1.4.*.X.1.1.$.X.A F F t.F.F.i.f.f.D.D.i.1.&.E E &.&.X.R 1.I i u b I E E A i 2 ",
"$ 0 y i Z E &.&.R :.a.=.X.<.i.e.i.i.w.<.>.>.1.6.i.e.<.:.I &.*.&.%.A E $.7.*.I *.p.6.1.$.&.i.1.<.<.<.R x t u A P u F T Y A x r % ",
"$ : 0 y i A I A i x Y Y X.X.+.,.w.y.,.$.>.<.%.=.+.;.e.d.+.r.T $.&.Y I ( ( I >.*.E I Z A ..w.e.d.d.d.s.<.P P <.X.Y Y I A Z i r $ ",
"+ : q q e u i i i x P X.X.P Z A Y Y ..+.+.<.-.=.-...+.e.@.w.D w.e.<.<.A v L >.R A x Y i.,.Y Z P Y A P X.;.=.X...Y F A v u r 0 $ ",
"o $ : r 0 0 0 e i Z x A A +.w.X.:.X.+.+...X.X.O.;.;.+...O.Y A t A I Y Y F x t r t A X.X.R I Y I I Y Y Y P A A A A A Z i y r 0 & ",
"# : 0 w w 0 2 2 0 r r i D -.+.Y Y Y R Y P P P ......P i Z Y I A F x r 3 3 t x I ,.w.X.A I L A P P ....P A A A x Z A Z C i q 0 $ ",
"# & : 9 q w q 0 0 0 r i C  .X...P P Z C C i i i p Z Z C y p P Z E >.i.1.:.e.:.A i u C S P P  .Y P P P S p y r 0 y y i i r q 9 $ ",
". & 9 9 9 q r q 0 r r y u i C D Z Z i p Z a Z a y q q i p p i u t u y r t u i D P P P Z u u p C i i C p C P p y i Z y r 0 : : # ",
". $ 9 : 2 2 2 0 0 q r y u : : 3 2 0 r p p i y r p 0 q q 0 2 r i r y r C Z Z Z p y r : 2 2 % : : 2 0 y u i i i C 0 2 2 2 : : & o ",
"X   o # $ # $ # # # # $ $ o o o o $ + $ : : # o $ & : $ $ $ + . + $ : - - $ # : : % + # o . o o o o $ $ : % : - o # o o o # # . ",
"o # $ $ - : 3 3 3 > - : 3 r t t t t e $ - $ : : 3 e 3 r 0 : 3 6 > - - = = $ + o @ o $ 3 t c x r x x r 3 > > : 3 r r e 3 : - $ o ",
": r i x b F Y Y R T G G ! ) ^ ! ) / *.T ] G ( *.4.4.6.7.6.&.) ) ^ $.T v G U F b F b F ) ) *.2.) *.>.$.T T ( U T ^ T U b x t t - ",
"$ - > 6 7 r t l c c c l z z j k n z B V M n n M V M V ! ^ c V U ^ ^ ^ b B V V V V B z k d j j j j j B G b c l z z j 7 7 > - - o ",
"o O @ = = ; 6 > ; ; ; ; ; < < 5 1 < < < < < < 1 1 5 5 7 8 6 j d d s 6 7 7 6 7 s 7 7 < < 1 ; 1 7 < < < 1 ; < 1 1 < ; * * = @ @ o "
};
